<?xml version="1.0" encoding="UTF-8" standalone="no"?>
<!DOCTYPE svg PUBLIC "-//W3C//DTD SVG 1.1//EN"
 "http://www.w3.org/Graphics/SVG/1.1/DTD/svg11.dtd">
<!-- Generated by graphviz version 12.2.1 (0)
 -->
<!-- Pages: 1 -->
<svg width="1054pt" height="404pt"
 viewBox="0.00 0.00 1054.38 404.00" xmlns="http://www.w3.org/2000/svg" xmlns:xlink="http://www.w3.org/1999/xlink">
<g id="graph0" class="graph" transform="scale(1 1) rotate(0) translate(4 400)">
<polygon fill="white" stroke="none" points="-4,4 -4,-400 1050.38,-400 1050.38,4 -4,4"/>
<!-- auth/casdoor -->
<g id="node1" class="node">
<title>auth/casdoor</title>
<polygon fill="none" stroke="black" points="308.12,-396 199.88,-396 199.88,-360 308.12,-360 308.12,-396"/>
<text text-anchor="middle" x="254" y="-373.32" font-family="Times,serif" font-size="14.00">auth/casdoor</text>
</g>
<!-- network/cilium -->
<g id="node2" class="node">
<title>network/cilium</title>
<polygon fill="none" stroke="black" points="314.25,-36 191.75,-36 191.75,0 314.25,0 314.25,-36"/>
<text text-anchor="middle" x="253" y="-13.32" font-family="Times,serif" font-size="14.00">network/cilium</text>
</g>
<!-- auth/casdoor&#45;&gt;network/cilium -->
<g id="edge1" class="edge">
<title>auth/casdoor&#45;&gt;network/cilium</title>
<path fill="none" stroke="black" d="M263.12,-359.51C263.12,-302.3 263.12,-132 263.12,-132 263.12,-132 233.25,-132 233.25,-132 233.25,-132 233.25,-47.83 233.25,-47.83"/>
<polygon fill="black" stroke="black" points="236.75,-47.83 233.25,-37.83 229.75,-47.83 236.75,-47.83"/>
</g>
<!-- network/cilium/cr -->
<g id="node3" class="node">
<title>network/cilium/cr</title>
<polygon fill="none" stroke="black" points="244.62,-180 103.38,-180 103.38,-144 244.62,-144 244.62,-180"/>
<text text-anchor="middle" x="174" y="-157.32" font-family="Times,serif" font-size="14.00">network/cilium/cr</text>
</g>
<!-- auth/casdoor&#45;&gt;network/cilium/cr -->
<g id="edge2" class="edge">
<title>auth/casdoor&#45;&gt;network/cilium/cr</title>
<path fill="none" stroke="black" d="M235.31,-359.58C235.31,-359.58 235.31,-191.88 235.31,-191.88"/>
<polygon fill="black" stroke="black" points="238.81,-191.88 235.31,-181.88 231.81,-191.88 238.81,-191.88"/>
</g>
<!-- storage/postgres -->
<g id="node4" class="node">
<title>storage/postgres</title>
<polygon fill="none" stroke="black" points="418.38,-324 281.62,-324 281.62,-288 418.38,-288 418.38,-324"/>
<text text-anchor="middle" x="350" y="-301.32" font-family="Times,serif" font-size="14.00">storage/postgres</text>
</g>
<!-- auth/casdoor&#45;&gt;storage/postgres -->
<g id="edge3" class="edge">
<title>auth/casdoor&#45;&gt;storage/postgres</title>
<path fill="none" stroke="black" d="M294.88,-359.83C294.88,-359.83 294.88,-335.93 294.88,-335.93"/>
<polygon fill="black" stroke="black" points="298.38,-335.93 294.88,-325.93 291.38,-335.93 298.38,-335.93"/>
</g>
<!-- network/cilium/cr&#45;&gt;network/cilium -->
<g id="edge13" class="edge">
<title>network/cilium/cr&#45;&gt;network/cilium</title>
<path fill="none" stroke="black" d="M228.81,-143.76C228.81,-143.76 228.81,-47.6 228.81,-47.6"/>
<polygon fill="black" stroke="black" points="232.31,-47.6 228.81,-37.6 225.31,-47.6 232.31,-47.6"/>
</g>
<!-- auth/cert&#45;manager -->
<g id="node5" class="node">
<title>auth/cert&#45;manager</title>
<polygon fill="none" stroke="black" points="224.38,-108 75.62,-108 75.62,-72 224.38,-72 224.38,-108"/>
<text text-anchor="middle" x="150" y="-85.33" font-family="Times,serif" font-size="14.00">auth/cert&#45;manager</text>
</g>
<!-- network/cilium/cr&#45;&gt;auth/cert&#45;manager -->
<g id="edge14" class="edge">
<title>network/cilium/cr&#45;&gt;auth/cert&#45;manager</title>
<path fill="none" stroke="black" d="M163.88,-143.83C163.88,-143.83 163.88,-119.93 163.88,-119.93"/>
<polygon fill="black" stroke="black" points="167.38,-119.93 163.88,-109.93 160.38,-119.93 167.38,-119.93"/>
</g>
<!-- storage/postgres&#45;&gt;network/cilium -->
<g id="edge16" class="edge">
<title>storage/postgres&#45;&gt;network/cilium</title>
<path fill="none" stroke="black" d="M327.21,-287.83C327.21,-241.02 327.21,-120 327.21,-120 327.21,-120 237.69,-120 237.69,-120 237.69,-120 237.69,-47.75 237.69,-47.75"/>
<polygon fill="black" stroke="black" points="241.19,-47.75 237.69,-37.75 234.19,-47.75 241.19,-47.75"/>
</g>
<!-- storage/rook&#45;ceph/cr -->
<g id="node9" class="node">
<title>storage/rook&#45;ceph/cr</title>
<polygon fill="none" stroke="black" points="803.5,-252 640.5,-252 640.5,-216 803.5,-216 803.5,-252"/>
<text text-anchor="middle" x="722" y="-229.32" font-family="Times,serif" font-size="14.00">storage/rook&#45;ceph/cr</text>
</g>
<!-- storage/postgres&#45;&gt;storage/rook&#45;ceph/cr -->
<g id="edge17" class="edge">
<title>storage/postgres&#45;&gt;storage/rook&#45;ceph/cr</title>
<path fill="none" stroke="black" d="M372.79,-287.83C372.79,-266.5 372.79,-234 372.79,-234 372.79,-234 628.61,-234 628.61,-234"/>
<polygon fill="black" stroke="black" points="628.61,-237.5 638.61,-234 628.61,-230.5 628.61,-237.5"/>
</g>
<!-- auth/cert&#45;manager&#45;&gt;network/cilium -->
<g id="edge4" class="edge">
<title>auth/cert&#45;manager&#45;&gt;network/cilium</title>
<path fill="none" stroke="black" d="M208.06,-71.83C208.06,-71.83 208.06,-47.93 208.06,-47.93"/>
<polygon fill="black" stroke="black" points="211.56,-47.93 208.06,-37.93 204.56,-47.93 211.56,-47.93"/>
</g>
<!-- auth/rbac -->
<g id="node6" class="node">
<title>auth/rbac</title>
<polygon fill="none" stroke="black" points="410.12,-396 325.88,-396 325.88,-360 410.12,-360 410.12,-396"/>
<text text-anchor="middle" x="368" y="-373.32" font-family="Times,serif" font-size="14.00">auth/rbac</text>
</g>
<!-- monitoring/grafana -->
<g id="node7" class="node">
<title>monitoring/grafana</title>
<polygon fill="none" stroke="black" points="154,-252 0,-252 0,-216 154,-216 154,-252"/>
<text text-anchor="middle" x="77" y="-229.32" font-family="Times,serif" font-size="14.00">monitoring/grafana</text>
</g>
<!-- monitoring/grafana&#45;&gt;network/cilium -->
<g id="edge5" class="edge">
<title>monitoring/grafana&#45;&gt;network/cilium</title>
<path fill="none" stroke="black" d="M37.81,-215.58C37.81,-163.35 37.81,-18 37.81,-18 37.81,-18 179.82,-18 179.82,-18"/>
<polygon fill="black" stroke="black" points="179.82,-21.5 189.82,-18 179.82,-14.5 179.82,-21.5"/>
</g>
<!-- monitoring/grafana&#45;&gt;network/cilium/cr -->
<g id="edge6" class="edge">
<title>monitoring/grafana&#45;&gt;network/cilium/cr</title>
<path fill="none" stroke="black" d="M128.69,-215.83C128.69,-215.83 128.69,-191.93 128.69,-191.93"/>
<polygon fill="black" stroke="black" points="132.19,-191.93 128.69,-181.93 125.19,-191.93 132.19,-191.93"/>
</g>
<!-- monitoring/loki -->
<g id="node8" class="node">
<title>monitoring/loki</title>
<polygon fill="none" stroke="black" points="1046.38,-324 921.62,-324 921.62,-288 1046.38,-288 1046.38,-324"/>
<text text-anchor="middle" x="984" y="-301.32" font-family="Times,serif" font-size="14.00">monitoring/loki</text>
</g>
<!-- monitoring/loki&#45;&gt;network/cilium -->
<g id="edge7" class="edge">
<title>monitoring/loki&#45;&gt;network/cilium</title>
<path fill="none" stroke="black" d="M1011.38,-287.75C1011.38,-222.83 1011.38,-7 1011.38,-7 1011.38,-7 326.25,-7 326.25,-7"/>
<polygon fill="black" stroke="black" points="326.25,-3.5 316.25,-7 326.25,-10.5 326.25,-3.5"/>
</g>
<!-- monitoring/loki&#45;&gt;storage/rook&#45;ceph/cr -->
<g id="edge8" class="edge">
<title>monitoring/loki&#45;&gt;storage/rook&#45;ceph/cr</title>
<path fill="none" stroke="black" d="M949,-287.83C949,-266.5 949,-234 949,-234 949,-234 815.47,-234 815.47,-234"/>
<polygon fill="black" stroke="black" points="815.47,-230.5 805.47,-234 815.47,-237.5 815.47,-230.5"/>
</g>
<!-- storage/rook&#45;ceph/cr&#45;&gt;network/cilium/cr -->
<g id="edge21" class="edge">
<title>storage/rook&#45;ceph/cr&#45;&gt;network/cilium/cr</title>
<path fill="none" stroke="black" d="M645.19,-215.62C645.19,-196.09 645.19,-168 645.19,-168 645.19,-168 256.57,-168 256.57,-168"/>
<polygon fill="black" stroke="black" points="256.57,-164.5 246.57,-168 256.57,-171.5 256.57,-164.5"/>
</g>
<!-- storage/rook&#45;ceph -->
<g id="node14" class="node">
<title>storage/rook&#45;ceph</title>
<polygon fill="none" stroke="black" points="794.12,-180 649.88,-180 649.88,-144 794.12,-144 794.12,-180"/>
<text text-anchor="middle" x="722" y="-157.32" font-family="Times,serif" font-size="14.00">storage/rook&#45;ceph</text>
</g>
<!-- storage/rook&#45;ceph/cr&#45;&gt;storage/rook&#45;ceph -->
<g id="edge22" class="edge">
<title>storage/rook&#45;ceph/cr&#45;&gt;storage/rook&#45;ceph</title>
<path fill="none" stroke="black" d="M722,-215.83C722,-215.83 722,-191.93 722,-191.93"/>
<polygon fill="black" stroke="black" points="725.5,-191.93 722,-181.93 718.5,-191.93 725.5,-191.93"/>
</g>
<!-- monitoring/metrics&#45;server -->
<g id="node10" class="node">
<title>monitoring/metrics&#45;server</title>
<polygon fill="none" stroke="black" points="693.75,-108 490.25,-108 490.25,-72 693.75,-72 693.75,-108"/>
<text text-anchor="middle" x="592" y="-85.33" font-family="Times,serif" font-size="14.00">monitoring/metrics&#45;server</text>
</g>
<!-- monitoring/metrics&#45;server&#45;&gt;network/cilium -->
<g id="edge9" class="edge">
<title>monitoring/metrics&#45;server&#45;&gt;network/cilium</title>
<path fill="none" stroke="black" d="M592,-71.7C592,-53.73 592,-29 592,-29 592,-29 325.9,-29 325.9,-29"/>
<polygon fill="black" stroke="black" points="325.9,-25.5 315.9,-29 325.9,-32.5 325.9,-25.5"/>
</g>
<!-- monitoring/prometheus&#45;stack -->
<g id="node11" class="node">
<title>monitoring/prometheus&#45;stack</title>
<polygon fill="none" stroke="black" points="976.38,-108 749.62,-108 749.62,-72 976.38,-72 976.38,-108"/>
<text text-anchor="middle" x="863" y="-85.33" font-family="Times,serif" font-size="14.00">monitoring/prometheus&#45;stack</text>
</g>
<!-- monitoring/prometheus&#45;stack&#45;&gt;network/cilium -->
<g id="edge10" class="edge">
<title>monitoring/prometheus&#45;stack&#45;&gt;network/cilium</title>
<path fill="none" stroke="black" d="M863,-71.6C863,-49.11 863,-14 863,-14 863,-14 326.08,-14 326.08,-14"/>
<polygon fill="black" stroke="black" points="326.08,-10.5 316.08,-14 326.08,-17.5 326.08,-10.5"/>
</g>
<!-- monitoring/prometheus&#45;stack/cr -->
<g id="node12" class="node">
<title>monitoring/prometheus&#45;stack/cr</title>
<polygon fill="none" stroke="black" points="864.75,-324 619.25,-324 619.25,-288 864.75,-288 864.75,-324"/>
<text text-anchor="middle" x="742" y="-301.32" font-family="Times,serif" font-size="14.00">monitoring/prometheus&#45;stack/cr</text>
</g>
<!-- monitoring/prometheus&#45;stack/cr&#45;&gt;storage/rook&#45;ceph/cr -->
<g id="edge11" class="edge">
<title>monitoring/prometheus&#45;stack/cr&#45;&gt;storage/rook&#45;ceph/cr</title>
<path fill="none" stroke="black" d="M722,-287.83C722,-287.83 722,-263.93 722,-263.93"/>
<polygon fill="black" stroke="black" points="725.5,-263.93 722,-253.93 718.5,-263.93 725.5,-263.93"/>
</g>
<!-- monitoring/prometheus&#45;stack/cr&#45;&gt;monitoring/prometheus&#45;stack -->
<g id="edge12" class="edge">
<title>monitoring/prometheus&#45;stack/cr&#45;&gt;monitoring/prometheus&#45;stack</title>
<path fill="none" stroke="black" d="M834.12,-287.58C834.12,-287.58 834.12,-119.88 834.12,-119.88"/>
<polygon fill="black" stroke="black" points="837.63,-119.88 834.13,-109.88 830.63,-119.88 837.63,-119.88"/>
</g>
<!-- storage/local&#45;path&#45;provisioner -->
<g id="node13" class="node">
<title>storage/local&#45;path&#45;provisioner</title>
<polygon fill="none" stroke="black" points="471.88,-108 242.12,-108 242.12,-72 471.88,-72 471.88,-108"/>
<text text-anchor="middle" x="357" y="-85.33" font-family="Times,serif" font-size="14.00">storage/local&#45;path&#45;provisioner</text>
</g>
<!-- storage/local&#45;path&#45;provisioner&#45;&gt;network/cilium -->
<g id="edge15" class="edge">
<title>storage/local&#45;path&#45;provisioner&#45;&gt;network/cilium</title>
<path fill="none" stroke="black" d="M278.19,-71.83C278.19,-71.83 278.19,-47.93 278.19,-47.93"/>
<polygon fill="black" stroke="black" points="281.69,-47.93 278.19,-37.93 274.69,-47.93 281.69,-47.93"/>
</g>
<!-- storage/rook&#45;ceph&#45;&gt;network/cilium -->
<g id="edge18" class="edge">
<title>storage/rook&#45;ceph&#45;&gt;network/cilium</title>
<path fill="none" stroke="black" d="M721.69,-143.7C721.69,-105.75 721.69,-22 721.69,-22 721.69,-22 325.79,-22 325.79,-22"/>
<polygon fill="black" stroke="black" points="325.79,-18.5 315.79,-22 325.79,-25.5 325.79,-18.5"/>
</g>
<!-- storage/rook&#45;ceph&#45;&gt;monitoring/prometheus&#45;stack -->
<g id="edge20" class="edge">
<title>storage/rook&#45;ceph&#45;&gt;monitoring/prometheus&#45;stack</title>
<path fill="none" stroke="black" d="M771.88,-143.83C771.88,-143.83 771.88,-119.93 771.88,-119.93"/>
<polygon fill="black" stroke="black" points="775.38,-119.93 771.88,-109.93 768.38,-119.93 775.38,-119.93"/>
</g>
<!-- storage/rook&#45;ceph&#45;&gt;storage/local&#45;path&#45;provisioner -->
<g id="edge19" class="edge">
<title>storage/rook&#45;ceph&#45;&gt;storage/local&#45;path&#45;provisioner</title>
<path fill="none" stroke="black" d="M649.62,-156C567.58,-156 445.12,-156 445.12,-156 445.12,-156 445.12,-119.9 445.12,-119.9"/>
<polygon fill="black" stroke="black" points="448.63,-119.9 445.13,-109.9 441.63,-119.9 448.63,-119.9"/>
</g>
<!-- temp -->
<g id="node15" class="node">
<title>temp</title>
<polygon fill="none" stroke="black" points="226,-252 172,-252 172,-216 226,-216 226,-252"/>
<text text-anchor="middle" x="199" y="-229.32" font-family="Times,serif" font-size="14.00">temp</text>
</g>
<!-- temp&#45;&gt;network/cilium/cr -->
<g id="edge23" class="edge">
<title>temp&#45;&gt;network/cilium/cr</title>
<path fill="none" stroke="black" d="M199,-215.83C199,-215.83 199,-191.93 199,-191.93"/>
<polygon fill="black" stroke="black" points="202.5,-191.93 199,-181.93 195.5,-191.93 202.5,-191.93"/>
</g>
</g>
</svg>
