<?xml version="1.0" encoding="UTF-8" standalone="no"?>
<!DOCTYPE svg PUBLIC "-//W3C//DTD SVG 1.1//EN"
 "http://www.w3.org/Graphics/SVG/1.1/DTD/svg11.dtd">
<!-- Generated by graphviz version 12.1.2 (0)
 -->
<!-- Pages: 1 -->
<svg width="1590pt" height="404pt"
 viewBox="0.00 0.00 1590.44 404.00" xmlns="http://www.w3.org/2000/svg" xmlns:xlink="http://www.w3.org/1999/xlink">
<g id="graph0" class="graph" transform="scale(1 1) rotate(0) translate(4 400)">
<polygon fill="white" stroke="none" points="-4,4 -4,-400 1586.44,-400 1586.44,4 -4,4"/>
<!-- auth/casdoor -->
<g id="node1" class="node">
<title>auth/casdoor</title>
<ellipse fill="none" stroke="black" cx="75.94" cy="-378" rx="75.94" ry="18"/>
<text text-anchor="middle" x="75.94" y="-373.32" font-family="Times,serif" font-size="14.00">auth/casdoor</text>
</g>
<!-- network/cilium -->
<g id="node2" class="node">
<title>network/cilium</title>
<ellipse fill="none" stroke="black" cx="796.94" cy="-18" rx="85.93" ry="18"/>
<text text-anchor="middle" x="796.94" y="-13.32" font-family="Times,serif" font-size="14.00">network/cilium</text>
</g>
<!-- auth/casdoor&#45;&gt;network/cilium -->
<g id="edge1" class="edge">
<title>auth/casdoor&#45;&gt;network/cilium</title>
<path fill="none" stroke="black" d="M58.91,-360.3C49.89,-350.52 39.37,-337.47 32.94,-324 15.49,-287.51 13.94,-275.45 13.94,-235 13.94,-235 13.94,-235 13.94,-161 13.94,-118.66 13.93,-97.23 47.94,-72 99.11,-34.04 508.96,-23.15 699.8,-20.12"/>
<polygon fill="black" stroke="black" points="699.76,-23.62 709.71,-19.97 699.65,-16.62 699.76,-23.62"/>
</g>
<!-- storage/postgres -->
<g id="node3" class="node">
<title>storage/postgres</title>
<ellipse fill="none" stroke="black" cx="137.94" cy="-306" rx="95.93" ry="18"/>
<text text-anchor="middle" x="137.94" y="-301.32" font-family="Times,serif" font-size="14.00">storage/postgres</text>
</g>
<!-- auth/casdoor&#45;&gt;storage/postgres -->
<g id="edge2" class="edge">
<title>auth/casdoor&#45;&gt;storage/postgres</title>
<path fill="none" stroke="black" d="M90.94,-360.05C98.33,-351.71 107.39,-341.49 115.57,-332.25"/>
<polygon fill="black" stroke="black" points="118.05,-334.73 122.06,-324.92 112.81,-330.09 118.05,-334.73"/>
</g>
<!-- storage/postgres&#45;&gt;network/cilium -->
<g id="edge12" class="edge">
<title>storage/postgres&#45;&gt;network/cilium</title>
<path fill="none" stroke="black" d="M123.53,-287.85C89.73,-245.51 12.47,-134.89 70.94,-72 112.83,-26.93 511.23,-19.76 699.4,-18.91"/>
<polygon fill="black" stroke="black" points="699.16,-22.41 709.15,-18.87 699.14,-15.41 699.16,-22.41"/>
</g>
<!-- storage/rook&#45;ceph/cr -->
<g id="node6" class="node">
<title>storage/rook&#45;ceph/cr</title>
<ellipse fill="none" stroke="black" cx="1065.94" cy="-234" rx="114.34" ry="18"/>
<text text-anchor="middle" x="1065.94" y="-229.32" font-family="Times,serif" font-size="14.00">storage/rook&#45;ceph/cr</text>
</g>
<!-- storage/postgres&#45;&gt;storage/rook&#45;ceph/cr -->
<g id="edge13" class="edge">
<title>storage/postgres&#45;&gt;storage/rook&#45;ceph/cr</title>
<path fill="none" stroke="black" d="M225.66,-298.38C394.91,-285.62 766.29,-257.6 953.43,-243.49"/>
<polygon fill="black" stroke="black" points="953.45,-246.99 963.16,-242.75 952.93,-240.01 953.45,-246.99"/>
</g>
<!-- monitoring/grafana -->
<g id="node4" class="node">
<title>monitoring/grafana</title>
<ellipse fill="none" stroke="black" cx="187.94" cy="-90" rx="108.03" ry="18"/>
<text text-anchor="middle" x="187.94" y="-85.33" font-family="Times,serif" font-size="14.00">monitoring/grafana</text>
</g>
<!-- monitoring/grafana&#45;&gt;network/cilium -->
<g id="edge3" class="edge">
<title>monitoring/grafana&#45;&gt;network/cilium</title>
<path fill="none" stroke="black" d="M266.23,-77.21C279.15,-75.39 292.41,-73.58 304.94,-72 445.95,-54.17 610.19,-37.25 708.74,-27.51"/>
<polygon fill="black" stroke="black" points="709.02,-31 718.63,-26.53 708.33,-24.03 709.02,-31"/>
</g>
<!-- monitoring/loki -->
<g id="node5" class="node">
<title>monitoring/loki</title>
<ellipse fill="none" stroke="black" cx="1494.94" cy="-306" rx="87.51" ry="18"/>
<text text-anchor="middle" x="1494.94" y="-301.32" font-family="Times,serif" font-size="14.00">monitoring/loki</text>
</g>
<!-- monitoring/loki&#45;&gt;network/cilium -->
<g id="edge4" class="edge">
<title>monitoring/loki&#45;&gt;network/cilium</title>
<path fill="none" stroke="black" d="M1506.73,-287.67C1534.24,-244.93 1596.16,-133.46 1538.94,-72 1495.92,-25.8 1085.85,-19.26 894.45,-18.74"/>
<polygon fill="black" stroke="black" points="894.52,-15.24 884.51,-18.72 894.5,-22.24 894.52,-15.24"/>
</g>
<!-- monitoring/loki&#45;&gt;storage/rook&#45;ceph/cr -->
<g id="edge5" class="edge">
<title>monitoring/loki&#45;&gt;storage/rook&#45;ceph/cr</title>
<path fill="none" stroke="black" d="M1427.9,-294.06C1354.31,-282.05 1235.81,-262.72 1154.58,-249.46"/>
<polygon fill="black" stroke="black" points="1155.3,-246.04 1144.87,-247.88 1154.18,-252.94 1155.3,-246.04"/>
</g>
<!-- storage/rook&#45;ceph -->
<g id="node12" class="node">
<title>storage/rook&#45;ceph</title>
<ellipse fill="none" stroke="black" cx="1000.94" cy="-162" rx="101.19" ry="18"/>
<text text-anchor="middle" x="1000.94" y="-157.32" font-family="Times,serif" font-size="14.00">storage/rook&#45;ceph</text>
</g>
<!-- storage/rook&#45;ceph/cr&#45;&gt;storage/rook&#45;ceph -->
<g id="edge17" class="edge">
<title>storage/rook&#45;ceph/cr&#45;&gt;storage/rook&#45;ceph</title>
<path fill="none" stroke="black" d="M1049.87,-215.7C1042.23,-207.47 1032.96,-197.48 1024.54,-188.42"/>
<polygon fill="black" stroke="black" points="1027.22,-186.16 1017.85,-181.21 1022.09,-190.92 1027.22,-186.16"/>
</g>
<!-- monitoring/metrics&#45;server -->
<g id="node7" class="node">
<title>monitoring/metrics&#45;server</title>
<ellipse fill="none" stroke="black" cx="796.94" cy="-90" rx="142.75" ry="18"/>
<text text-anchor="middle" x="796.94" y="-85.33" font-family="Times,serif" font-size="14.00">monitoring/metrics&#45;server</text>
</g>
<!-- monitoring/metrics&#45;server&#45;&gt;network/cilium -->
<g id="edge6" class="edge">
<title>monitoring/metrics&#45;server&#45;&gt;network/cilium</title>
<path fill="none" stroke="black" d="M796.94,-71.7C796.94,-64.41 796.94,-55.73 796.94,-47.54"/>
<polygon fill="black" stroke="black" points="800.44,-47.62 796.94,-37.62 793.44,-47.62 800.44,-47.62"/>
</g>
<!-- monitoring/prometheus&#45;stack -->
<g id="node8" class="node">
<title>monitoring/prometheus&#45;stack</title>
<ellipse fill="none" stroke="black" cx="1370.94" cy="-90" rx="159.06" ry="18"/>
<text text-anchor="middle" x="1370.94" y="-85.33" font-family="Times,serif" font-size="14.00">monitoring/prometheus&#45;stack</text>
</g>
<!-- monitoring/prometheus&#45;stack&#45;&gt;network/cilium -->
<g id="edge7" class="edge">
<title>monitoring/prometheus&#45;stack&#45;&gt;network/cilium</title>
<path fill="none" stroke="black" d="M1265.65,-76.16C1154.91,-62.66 982.84,-41.67 880.88,-29.24"/>
<polygon fill="black" stroke="black" points="881.57,-25.8 871.22,-28.06 880.72,-32.74 881.57,-25.8"/>
</g>
<!-- monitoring/prometheus&#45;stack/cr -->
<g id="node9" class="node">
<title>monitoring/prometheus&#45;stack/cr</title>
<ellipse fill="none" stroke="black" cx="1152.94" cy="-306" rx="172.21" ry="18"/>
<text text-anchor="middle" x="1152.94" y="-301.32" font-family="Times,serif" font-size="14.00">monitoring/prometheus&#45;stack/cr</text>
</g>
<!-- monitoring/prometheus&#45;stack/cr&#45;&gt;storage/rook&#45;ceph/cr -->
<g id="edge8" class="edge">
<title>monitoring/prometheus&#45;stack/cr&#45;&gt;storage/rook&#45;ceph/cr</title>
<path fill="none" stroke="black" d="M1131.43,-287.7C1120.79,-279.14 1107.77,-268.66 1096.14,-259.3"/>
<polygon fill="black" stroke="black" points="1098.36,-256.6 1088.37,-253.05 1093.97,-262.05 1098.36,-256.6"/>
</g>
<!-- monitoring/prometheus&#45;stack/cr&#45;&gt;monitoring/prometheus&#45;stack -->
<g id="edge9" class="edge">
<title>monitoring/prometheus&#45;stack/cr&#45;&gt;monitoring/prometheus&#45;stack</title>
<path fill="none" stroke="black" d="M1170.41,-287.85C1208.75,-250.21 1300.44,-160.2 1345.31,-116.15"/>
<polygon fill="black" stroke="black" points="1347.62,-118.8 1352.3,-109.29 1342.71,-113.8 1347.62,-118.8"/>
</g>
<!-- network/cilium/cr -->
<g id="node10" class="node">
<title>network/cilium/cr</title>
<ellipse fill="none" stroke="black" cx="1094.94" cy="-90" rx="99.08" ry="18"/>
<text text-anchor="middle" x="1094.94" y="-85.33" font-family="Times,serif" font-size="14.00">network/cilium/cr</text>
</g>
<!-- network/cilium/cr&#45;&gt;network/cilium -->
<g id="edge10" class="edge">
<title>network/cilium/cr&#45;&gt;network/cilium</title>
<path fill="none" stroke="black" d="M1036.06,-75.17C986.44,-63.51 915.46,-46.84 863.73,-34.69"/>
<polygon fill="black" stroke="black" points="864.67,-31.32 854.14,-32.44 863.07,-38.13 864.67,-31.32"/>
</g>
<!-- storage/local&#45;path&#45;provisioner -->
<g id="node11" class="node">
<title>storage/local&#45;path&#45;provisioner</title>
<ellipse fill="none" stroke="black" cx="474.94" cy="-90" rx="161.17" ry="18"/>
<text text-anchor="middle" x="474.94" y="-85.33" font-family="Times,serif" font-size="14.00">storage/local&#45;path&#45;provisioner</text>
</g>
<!-- storage/local&#45;path&#45;provisioner&#45;&gt;network/cilium -->
<g id="edge11" class="edge">
<title>storage/local&#45;path&#45;provisioner&#45;&gt;network/cilium</title>
<path fill="none" stroke="black" d="M546.4,-73.46C600.45,-61.71 674.25,-45.67 727.74,-34.04"/>
<polygon fill="black" stroke="black" points="728.33,-37.5 737.36,-31.95 726.84,-30.66 728.33,-37.5"/>
</g>
<!-- storage/rook&#45;ceph&#45;&gt;network/cilium -->
<g id="edge14" class="edge">
<title>storage/rook&#45;ceph&#45;&gt;network/cilium</title>
<path fill="none" stroke="black" d="M995.09,-143.81C987.47,-123.85 972.28,-91.22 948.94,-72 926.75,-53.73 897.86,-41.59 871.23,-33.6"/>
<polygon fill="black" stroke="black" points="872.41,-30.3 861.84,-30.94 870.51,-37.03 872.41,-30.3"/>
</g>
<!-- storage/rook&#45;ceph&#45;&gt;monitoring/prometheus&#45;stack -->
<g id="edge16" class="edge">
<title>storage/rook&#45;ceph&#45;&gt;monitoring/prometheus&#45;stack</title>
<path fill="none" stroke="black" d="M1068.37,-148.24C1127.87,-136.98 1215.09,-120.48 1280.61,-108.09"/>
<polygon fill="black" stroke="black" points="1281.1,-111.56 1290.27,-106.26 1279.79,-104.68 1281.1,-111.56"/>
</g>
<!-- storage/rook&#45;ceph&#45;&gt;storage/local&#45;path&#45;provisioner -->
<g id="edge15" class="edge">
<title>storage/rook&#45;ceph&#45;&gt;storage/local&#45;path&#45;provisioner</title>
<path fill="none" stroke="black" d="M921.62,-150.44C832.54,-138.59 687.32,-119.26 586.76,-105.88"/>
<polygon fill="black" stroke="black" points="587.52,-102.45 577.14,-104.6 586.59,-109.39 587.52,-102.45"/>
</g>
</g>
</svg>
