<?xml version="1.0" encoding="UTF-8" standalone="no"?>
<!DOCTYPE svg PUBLIC "-//W3C//DTD SVG 1.1//EN"
 "http://www.w3.org/Graphics/SVG/1.1/DTD/svg11.dtd">
<!-- Generated by graphviz version 14.0.0 (0)
 -->
<!-- Pages: 1 -->
<svg width="953pt" height="404pt"
 viewBox="0.00 0.00 953.00 404.00" xmlns="http://www.w3.org/2000/svg" xmlns:xlink="http://www.w3.org/1999/xlink">
<g id="graph0" class="graph" transform="scale(1 1) rotate(0) translate(4 400)">
<polygon fill="white" stroke="none" points="-4,4 -4,-400 948.5,-400 948.5,4 -4,4"/>
<!-- auth/authentik -->
<g id="node1" class="node">
<title>auth/authentik</title>
<polygon fill="none" stroke="black" points="253.12,-396 132.12,-396 132.12,-360 253.12,-360 253.12,-396"/>
<text xml:space="preserve" text-anchor="middle" x="192.62" y="-373.32" font-family="Times,serif" font-size="14.00">auth/authentik</text>
</g>
<!-- network/cilium/cr -->
<g id="node2" class="node">
<title>network/cilium/cr</title>
<polygon fill="none" stroke="black" points="141.25,-180 0,-180 0,-144 141.25,-144 141.25,-180"/>
<text xml:space="preserve" text-anchor="middle" x="70.62" y="-157.32" font-family="Times,serif" font-size="14.00">network/cilium/cr</text>
</g>
<!-- auth/authentik&#45;&gt;network/cilium/cr -->
<g id="edge1" class="edge">
<title>auth/authentik&#45;&gt;network/cilium/cr</title>
<path fill="none" stroke="black" d="M131.96,-378C117.73,-378 106.62,-378 106.62,-378 106.62,-378 106.62,-191.93 106.62,-191.93"/>
<polygon fill="black" stroke="black" points="110.13,-191.93 106.63,-181.93 103.13,-191.93 110.13,-191.93"/>
</g>
<!-- storage/postgres -->
<g id="node3" class="node">
<title>storage/postgres</title>
<polygon fill="none" stroke="black" points="550,-324 413.25,-324 413.25,-288 550,-288 550,-324"/>
<text xml:space="preserve" text-anchor="middle" x="481.62" y="-301.32" font-family="Times,serif" font-size="14.00">storage/postgres</text>
</g>
<!-- auth/authentik&#45;&gt;storage/postgres -->
<g id="edge2" class="edge">
<title>auth/authentik&#45;&gt;storage/postgres</title>
<path fill="none" stroke="black" d="M192.62,-359.83C192.62,-338.5 192.62,-306 192.62,-306 192.62,-306 401.26,-306 401.26,-306"/>
<polygon fill="black" stroke="black" points="401.26,-309.5 411.26,-306 401.26,-302.5 401.26,-309.5"/>
</g>
<!-- auth/cert&#45;manager -->
<g id="node4" class="node">
<title>auth/cert&#45;manager</title>
<polygon fill="none" stroke="black" points="155,-108 6.25,-108 6.25,-72 155,-72 155,-108"/>
<text xml:space="preserve" text-anchor="middle" x="80.62" y="-85.33" font-family="Times,serif" font-size="14.00">auth/cert&#45;manager</text>
</g>
<!-- network/cilium/cr&#45;&gt;auth/cert&#45;manager -->
<g id="edge9" class="edge">
<title>network/cilium/cr&#45;&gt;auth/cert&#45;manager</title>
<path fill="none" stroke="black" d="M73.75,-143.83C73.75,-143.83 73.75,-119.93 73.75,-119.93"/>
<polygon fill="black" stroke="black" points="77.25,-119.93 73.75,-109.93 70.25,-119.93 77.25,-119.93"/>
</g>
<!-- network/cilium -->
<g id="node5" class="node">
<title>network/cilium</title>
<polygon fill="none" stroke="black" points="346.88,-36 224.38,-36 224.38,0 346.88,0 346.88,-36"/>
<text xml:space="preserve" text-anchor="middle" x="285.62" y="-13.32" font-family="Times,serif" font-size="14.00">network/cilium</text>
</g>
<!-- network/cilium/cr&#45;&gt;network/cilium -->
<g id="edge8" class="edge">
<title>network/cilium/cr&#45;&gt;network/cilium</title>
<path fill="none" stroke="black" d="M141.51,-162C186.62,-162 236.62,-162 236.62,-162 236.62,-162 236.62,-47.75 236.62,-47.75"/>
<polygon fill="black" stroke="black" points="240.13,-47.75 236.63,-37.75 233.13,-47.75 240.13,-47.75"/>
</g>
<!-- storage/postgres&#45;&gt;network/cilium -->
<g id="edge11" class="edge">
<title>storage/postgres&#45;&gt;network/cilium</title>
<path fill="none" stroke="black" d="M550.43,-306C616.35,-306 705.88,-306 705.88,-306 705.88,-306 705.88,-14 705.88,-14 705.88,-14 358.7,-14 358.7,-14"/>
<polygon fill="black" stroke="black" points="358.7,-10.5 348.7,-14 358.7,-17.5 358.7,-10.5"/>
</g>
<!-- storage/rook&#45;ceph/cr -->
<g id="node10" class="node">
<title>storage/rook&#45;ceph/cr</title>
<polygon fill="none" stroke="black" points="563.12,-252 400.12,-252 400.12,-216 563.12,-216 563.12,-252"/>
<text xml:space="preserve" text-anchor="middle" x="481.62" y="-229.32" font-family="Times,serif" font-size="14.00">storage/rook&#45;ceph/cr</text>
</g>
<!-- storage/postgres&#45;&gt;storage/rook&#45;ceph/cr -->
<g id="edge12" class="edge">
<title>storage/postgres&#45;&gt;storage/rook&#45;ceph/cr</title>
<path fill="none" stroke="black" d="M481.62,-287.83C481.62,-287.83 481.62,-263.93 481.62,-263.93"/>
<polygon fill="black" stroke="black" points="485.13,-263.93 481.63,-253.93 478.13,-263.93 485.13,-263.93"/>
</g>
<!-- auth/cert&#45;manager&#45;&gt;network/cilium -->
<g id="edge3" class="edge">
<title>auth/cert&#45;manager&#45;&gt;network/cilium</title>
<path fill="none" stroke="black" d="M155.12,-90C192.74,-90 230.5,-90 230.5,-90 230.5,-90 230.5,-47.68 230.5,-47.68"/>
<polygon fill="black" stroke="black" points="234,-47.68 230.5,-37.68 227,-47.68 234,-47.68"/>
</g>
<!-- monitoring/grafana -->
<g id="node6" class="node">
<title>monitoring/grafana</title>
<polygon fill="none" stroke="black" points="269.62,-252 115.62,-252 115.62,-216 269.62,-216 269.62,-252"/>
<text xml:space="preserve" text-anchor="middle" x="192.62" y="-229.32" font-family="Times,serif" font-size="14.00">monitoring/grafana</text>
</g>
<!-- monitoring/grafana&#45;&gt;network/cilium/cr -->
<g id="edge5" class="edge">
<title>monitoring/grafana&#45;&gt;network/cilium/cr</title>
<path fill="none" stroke="black" d="M128.44,-215.83C128.44,-215.83 128.44,-191.93 128.44,-191.93"/>
<polygon fill="black" stroke="black" points="131.94,-191.93 128.44,-181.93 124.94,-191.93 131.94,-191.93"/>
</g>
<!-- monitoring/grafana&#45;&gt;network/cilium -->
<g id="edge4" class="edge">
<title>monitoring/grafana&#45;&gt;network/cilium</title>
<path fill="none" stroke="black" d="M242.75,-215.58C242.75,-215.58 242.75,-47.88 242.75,-47.88"/>
<polygon fill="black" stroke="black" points="246.25,-47.88 242.75,-37.88 239.25,-47.88 246.25,-47.88"/>
</g>
<!-- monitoring/metrics&#45;server -->
<g id="node7" class="node">
<title>monitoring/metrics&#45;server</title>
<polygon fill="none" stroke="black" points="452.38,-108 248.88,-108 248.88,-72 452.38,-72 452.38,-108"/>
<text xml:space="preserve" text-anchor="middle" x="350.62" y="-85.33" font-family="Times,serif" font-size="14.00">monitoring/metrics&#45;server</text>
</g>
<!-- monitoring/metrics&#45;server&#45;&gt;network/cilium -->
<g id="edge6" class="edge">
<title>monitoring/metrics&#45;server&#45;&gt;network/cilium</title>
<path fill="none" stroke="black" d="M297.88,-71.83C297.88,-71.83 297.88,-47.93 297.88,-47.93"/>
<polygon fill="black" stroke="black" points="301.38,-47.93 297.88,-37.93 294.38,-47.93 301.38,-47.93"/>
</g>
<!-- monitoring/prometheus&#45;stack -->
<g id="node8" class="node">
<title>monitoring/prometheus&#45;stack</title>
<polygon fill="none" stroke="black" points="697,-108 470.25,-108 470.25,-72 697,-72 697,-108"/>
<text xml:space="preserve" text-anchor="middle" x="583.62" y="-85.33" font-family="Times,serif" font-size="14.00">monitoring/prometheus&#45;stack</text>
</g>
<!-- monitoring/prometheus&#45;stack&#45;&gt;network/cilium -->
<g id="edge7" class="edge">
<title>monitoring/prometheus&#45;stack&#45;&gt;network/cilium</title>
<path fill="none" stroke="black" d="M583.62,-71.78C583.62,-51.63 583.62,-22 583.62,-22 583.62,-22 358.88,-22 358.88,-22"/>
<polygon fill="black" stroke="black" points="358.88,-18.5 348.88,-22 358.88,-25.5 358.88,-18.5"/>
</g>
<!-- storage/local&#45;path&#45;provisioner -->
<g id="node9" class="node">
<title>storage/local&#45;path&#45;provisioner</title>
<polygon fill="none" stroke="black" points="944.5,-108 714.75,-108 714.75,-72 944.5,-72 944.5,-108"/>
<text xml:space="preserve" text-anchor="middle" x="829.62" y="-85.33" font-family="Times,serif" font-size="14.00">storage/local&#45;path&#45;provisioner</text>
</g>
<!-- storage/local&#45;path&#45;provisioner&#45;&gt;network/cilium -->
<g id="edge10" class="edge">
<title>storage/local&#45;path&#45;provisioner&#45;&gt;network/cilium</title>
<path fill="none" stroke="black" d="M829.62,-71.58C829.62,-47.13 829.62,-7 829.62,-7 829.62,-7 358.75,-7 358.75,-7"/>
<polygon fill="black" stroke="black" points="358.75,-3.5 348.75,-7 358.75,-10.5 358.75,-3.5"/>
</g>
<!-- storage/rook&#45;ceph -->
<g id="node11" class="node">
<title>storage/rook&#45;ceph</title>
<polygon fill="none" stroke="black" points="553.75,-180 409.5,-180 409.5,-144 553.75,-144 553.75,-180"/>
<text xml:space="preserve" text-anchor="middle" x="481.62" y="-157.32" font-family="Times,serif" font-size="14.00">storage/rook&#45;ceph</text>
</g>
<!-- storage/rook&#45;ceph/cr&#45;&gt;storage/rook&#45;ceph -->
<g id="edge15" class="edge">
<title>storage/rook&#45;ceph/cr&#45;&gt;storage/rook&#45;ceph</title>
<path fill="none" stroke="black" d="M481.62,-215.83C481.62,-215.83 481.62,-191.93 481.62,-191.93"/>
<polygon fill="black" stroke="black" points="485.13,-191.93 481.63,-181.93 478.13,-191.93 485.13,-191.93"/>
</g>
<!-- storage/rook&#45;ceph&#45;&gt;network/cilium -->
<g id="edge13" class="edge">
<title>storage/rook&#45;ceph&#45;&gt;network/cilium</title>
<path fill="none" stroke="black" d="M461.31,-143.51C461.31,-106.96 461.31,-29 461.31,-29 461.31,-29 358.59,-29 358.59,-29"/>
<polygon fill="black" stroke="black" points="358.59,-25.5 348.59,-29 358.59,-32.5 358.59,-25.5"/>
</g>
<!-- storage/rook&#45;ceph&#45;&gt;monitoring/prometheus&#45;stack -->
<g id="edge14" class="edge">
<title>storage/rook&#45;ceph&#45;&gt;monitoring/prometheus&#45;stack</title>
<path fill="none" stroke="black" d="M512,-143.83C512,-143.83 512,-119.93 512,-119.93"/>
<polygon fill="black" stroke="black" points="515.5,-119.93 512,-109.93 508.5,-119.93 515.5,-119.93"/>
</g>
<!-- temp -->
<g id="node12" class="node">
<title>temp</title>
<polygon fill="none" stroke="black" points="97.62,-252 43.62,-252 43.62,-216 97.62,-216 97.62,-252"/>
<text xml:space="preserve" text-anchor="middle" x="70.62" y="-229.32" font-family="Times,serif" font-size="14.00">temp</text>
</g>
<!-- temp&#45;&gt;network/cilium/cr -->
<g id="edge16" class="edge">
<title>temp&#45;&gt;network/cilium/cr</title>
<path fill="none" stroke="black" d="M70.62,-215.83C70.62,-215.83 70.62,-191.93 70.62,-191.93"/>
<polygon fill="black" stroke="black" points="74.13,-191.93 70.63,-181.93 67.13,-191.93 74.13,-191.93"/>
</g>
</g>
</svg>
