<?xml version="1.0" encoding="UTF-8" standalone="no"?>
<!DOCTYPE svg PUBLIC "-//W3C//DTD SVG 1.1//EN"
 "http://www.w3.org/Graphics/SVG/1.1/DTD/svg11.dtd">
<!-- Generated by graphviz version 2.43.0 (0)
 -->
<!-- Title: %3 Pages: 1 -->
<svg width="1382pt" height="188pt"
 viewBox="0.00 0.00 1382.23 188.00" xmlns="http://www.w3.org/2000/svg" xmlns:xlink="http://www.w3.org/1999/xlink">
<g id="graph0" class="graph" transform="scale(1 1) rotate(0) translate(4 184)">
<title>%3</title>
<polygon fill="white" stroke="transparent" points="-4,4 -4,-184 1378.23,-184 1378.23,4 -4,4"/>
<!-- monitoring/metrics&#45;server -->
<g id="node1" class="node">
<title>monitoring/metrics&#45;server</title>
<ellipse fill="none" stroke="black" cx="132.59" cy="-90" rx="132.68" ry="18"/>
<text text-anchor="middle" x="132.59" y="-86.3" font-family="Times,serif" font-size="14.00">monitoring/metrics&#45;server</text>
</g>
<!-- network/cilium -->
<g id="node2" class="node">
<title>network/cilium</title>
<ellipse fill="none" stroke="black" cx="764.59" cy="-18" rx="79.89" ry="18"/>
<text text-anchor="middle" x="764.59" y="-14.3" font-family="Times,serif" font-size="14.00">network/cilium</text>
</g>
<!-- monitoring/metrics&#45;server&#45;&gt;network/cilium -->
<g id="edge1" class="edge">
<title>monitoring/metrics&#45;server&#45;&gt;network/cilium</title>
<path fill="none" stroke="black" d="M228.05,-77.42C243.6,-75.58 259.54,-73.71 274.59,-72 418.49,-55.6 586.3,-37.72 683.51,-27.48"/>
<polygon fill="black" stroke="black" points="683.98,-30.95 693.56,-26.43 683.25,-23.99 683.98,-30.95"/>
</g>
<!-- monitoring/prometheus -->
<g id="node3" class="node">
<title>monitoring/prometheus</title>
<ellipse fill="none" stroke="black" cx="403.59" cy="-90" rx="120.48" ry="18"/>
<text text-anchor="middle" x="403.59" y="-86.3" font-family="Times,serif" font-size="14.00">monitoring/prometheus</text>
</g>
<!-- monitoring/prometheus&#45;&gt;network/cilium -->
<g id="edge2" class="edge">
<title>monitoring/prometheus&#45;&gt;network/cilium</title>
<path fill="none" stroke="black" d="M474.05,-75.34C538.32,-62.87 632.7,-44.57 696.29,-32.24"/>
<polygon fill="black" stroke="black" points="697.07,-35.66 706.22,-30.32 695.74,-28.79 697.07,-35.66"/>
</g>
<!-- monitoring/prometheus&#45;cr -->
<g id="node4" class="node">
<title>monitoring/prometheus&#45;cr</title>
<ellipse fill="none" stroke="black" cx="403.59" cy="-162" rx="132.68" ry="18"/>
<text text-anchor="middle" x="403.59" y="-158.3" font-family="Times,serif" font-size="14.00">monitoring/prometheus&#45;cr</text>
</g>
<!-- monitoring/prometheus&#45;cr&#45;&gt;monitoring/prometheus -->
<g id="edge3" class="edge">
<title>monitoring/prometheus&#45;cr&#45;&gt;monitoring/prometheus</title>
<path fill="none" stroke="black" d="M403.59,-143.7C403.59,-135.98 403.59,-126.71 403.59,-118.11"/>
<polygon fill="black" stroke="black" points="407.09,-118.1 403.59,-108.1 400.09,-118.1 407.09,-118.1"/>
</g>
<!-- network/cilium&#45;cr -->
<g id="node5" class="node">
<title>network/cilium&#45;cr</title>
<ellipse fill="none" stroke="black" cx="634.59" cy="-90" rx="92.08" ry="18"/>
<text text-anchor="middle" x="634.59" y="-86.3" font-family="Times,serif" font-size="14.00">network/cilium&#45;cr</text>
</g>
<!-- network/cilium&#45;cr&#45;&gt;network/cilium -->
<g id="edge4" class="edge">
<title>network/cilium&#45;cr&#45;&gt;network/cilium</title>
<path fill="none" stroke="black" d="M664.41,-72.94C682.66,-63.11 706.2,-50.44 725.88,-39.84"/>
<polygon fill="black" stroke="black" points="727.76,-42.81 734.9,-34.98 724.44,-36.64 727.76,-42.81"/>
</g>
<!-- storage/local&#45;path&#45;provisioner -->
<g id="node6" class="node">
<title>storage/local&#45;path&#45;provisioner</title>
<ellipse fill="none" stroke="black" cx="894.59" cy="-90" rx="149.47" ry="18"/>
<text text-anchor="middle" x="894.59" y="-86.3" font-family="Times,serif" font-size="14.00">storage/local&#45;path&#45;provisioner</text>
</g>
<!-- storage/local&#45;path&#45;provisioner&#45;&gt;network/cilium -->
<g id="edge5" class="edge">
<title>storage/local&#45;path&#45;provisioner&#45;&gt;network/cilium</title>
<path fill="none" stroke="black" d="M863.45,-72.23C845.29,-62.46 822.25,-50.05 802.97,-39.67"/>
<polygon fill="black" stroke="black" points="804.6,-36.57 794.13,-34.91 801.28,-42.73 804.6,-36.57"/>
</g>
<!-- storage/rook&#45;ceph -->
<g id="node7" class="node">
<title>storage/rook&#45;ceph</title>
<ellipse fill="none" stroke="black" cx="1156.59" cy="-90" rx="94.48" ry="18"/>
<text text-anchor="middle" x="1156.59" y="-86.3" font-family="Times,serif" font-size="14.00">storage/rook&#45;ceph</text>
</g>
<!-- storage/rook&#45;ceph&#45;&gt;network/cilium -->
<g id="edge6" class="edge">
<title>storage/rook&#45;ceph&#45;&gt;network/cilium</title>
<path fill="none" stroke="black" d="M1090.09,-77.13C1019.26,-64.48 907.6,-44.54 835.23,-31.61"/>
<polygon fill="black" stroke="black" points="835.74,-28.15 825.28,-29.84 834.51,-35.04 835.74,-28.15"/>
</g>
<!-- workflow -->
<g id="node8" class="node">
<title>workflow</title>
<ellipse fill="none" stroke="black" cx="1321.59" cy="-90" rx="52.79" ry="18"/>
<text text-anchor="middle" x="1321.59" y="-86.3" font-family="Times,serif" font-size="14.00">workflow</text>
</g>
<!-- workflow&#45;&gt;network/cilium -->
<g id="edge7" class="edge">
<title>workflow&#45;&gt;network/cilium</title>
<path fill="none" stroke="black" d="M1283.45,-77.51C1275.61,-75.44 1267.37,-73.47 1259.59,-72 1117.76,-45.14 950.31,-30.77 851.03,-24.02"/>
<polygon fill="black" stroke="black" points="851.25,-20.53 841.04,-23.36 850.79,-27.52 851.25,-20.53"/>
</g>
</g>
</svg>
