<?xml version="1.0" encoding="UTF-8" standalone="no"?>
<!DOCTYPE svg PUBLIC "-//W3C//DTD SVG 1.1//EN"
 "http://www.w3.org/Graphics/SVG/1.1/DTD/svg11.dtd">
<!-- Generated by graphviz version 12.1.2 (0)
 -->
<!-- Pages: 1 -->
<svg width="1174pt" height="404pt"
 viewBox="0.00 0.00 1174.00 404.00" xmlns="http://www.w3.org/2000/svg" xmlns:xlink="http://www.w3.org/1999/xlink">
<g id="graph0" class="graph" transform="scale(1 1) rotate(0) translate(4 400)">
<polygon fill="white" stroke="none" points="-4,4 -4,-400 1170,-400 1170,4 -4,4"/>
<!-- auth/casdoor -->
<g id="node1" class="node">
<title>auth/casdoor</title>
<polygon fill="none" stroke="black" points="124.75,-396 16.5,-396 16.5,-360 124.75,-360 124.75,-396"/>
<text text-anchor="middle" x="70.62" y="-373.32" font-family="Times,serif" font-size="14.00">auth/casdoor</text>
</g>
<!-- network/cilium -->
<g id="node2" class="node">
<title>network/cilium</title>
<polygon fill="none" stroke="black" points="411.88,-36 289.38,-36 289.38,0 411.88,0 411.88,-36"/>
<text text-anchor="middle" x="350.62" y="-13.32" font-family="Times,serif" font-size="14.00">network/cilium</text>
</g>
<!-- auth/casdoor&#45;&gt;network/cilium -->
<g id="edge1" class="edge">
<title>auth/casdoor&#45;&gt;network/cilium</title>
<path fill="none" stroke="black" d="M125.19,-378C216.44,-378 390.12,-378 390.12,-378 390.12,-378 390.12,-47.86 390.12,-47.86"/>
<polygon fill="black" stroke="black" points="393.63,-47.86 390.13,-37.86 386.63,-47.86 393.63,-47.86"/>
</g>
<!-- network/cilium/cr -->
<g id="node3" class="node">
<title>network/cilium/cr</title>
<polygon fill="none" stroke="black" points="141.25,-180 0,-180 0,-144 141.25,-144 141.25,-180"/>
<text text-anchor="middle" x="70.62" y="-157.32" font-family="Times,serif" font-size="14.00">network/cilium/cr</text>
</g>
<!-- auth/casdoor&#45;&gt;network/cilium/cr -->
<g id="edge2" class="edge">
<title>auth/casdoor&#45;&gt;network/cilium/cr</title>
<path fill="none" stroke="black" d="M52.58,-359.58C52.58,-359.58 52.58,-191.88 52.58,-191.88"/>
<polygon fill="black" stroke="black" points="56.08,-191.88 52.58,-181.88 49.08,-191.88 56.08,-191.88"/>
</g>
<!-- storage/postgres -->
<g id="node4" class="node">
<title>storage/postgres</title>
<polygon fill="none" stroke="black" points="262,-324 125.25,-324 125.25,-288 262,-288 262,-324"/>
<text text-anchor="middle" x="193.62" y="-301.32" font-family="Times,serif" font-size="14.00">storage/postgres</text>
</g>
<!-- auth/casdoor&#45;&gt;storage/postgres -->
<g id="edge3" class="edge">
<title>auth/casdoor&#45;&gt;storage/postgres</title>
<path fill="none" stroke="black" d="M88.67,-359.83C88.67,-338.5 88.67,-306 88.67,-306 88.67,-306 113.27,-306 113.27,-306"/>
<polygon fill="black" stroke="black" points="113.27,-309.5 123.27,-306 113.27,-302.5 113.27,-309.5"/>
</g>
<!-- network/cilium/cr&#45;&gt;network/cilium -->
<g id="edge12" class="edge">
<title>network/cilium/cr&#45;&gt;network/cilium</title>
<path fill="none" stroke="black" d="M141.48,-162C233.61,-162 382.88,-162 382.88,-162 382.88,-162 382.88,-47.75 382.88,-47.75"/>
<polygon fill="black" stroke="black" points="386.38,-47.75 382.88,-37.75 379.38,-47.75 386.38,-47.75"/>
</g>
<!-- auth/cert&#45;manager -->
<g id="node5" class="node">
<title>auth/cert&#45;manager</title>
<polygon fill="none" stroke="black" points="166,-108 17.25,-108 17.25,-72 166,-72 166,-108"/>
<text text-anchor="middle" x="91.62" y="-85.33" font-family="Times,serif" font-size="14.00">auth/cert&#45;manager</text>
</g>
<!-- network/cilium/cr&#45;&gt;auth/cert&#45;manager -->
<g id="edge13" class="edge">
<title>network/cilium/cr&#45;&gt;auth/cert&#45;manager</title>
<path fill="none" stroke="black" d="M79.25,-143.83C79.25,-143.83 79.25,-119.93 79.25,-119.93"/>
<polygon fill="black" stroke="black" points="82.75,-119.93 79.25,-109.93 75.75,-119.93 82.75,-119.93"/>
</g>
<!-- storage/postgres&#45;&gt;network/cilium -->
<g id="edge15" class="edge">
<title>storage/postgres&#45;&gt;network/cilium</title>
<path fill="none" stroke="black" d="M193.81,-287.93C193.81,-225.69 193.81,-24 193.81,-24 193.81,-24 193.81,-12.49 193.81,-12.49"/>
<polygon fill="black" stroke="black" points="277.25,-26.09 287.6,-23.82 278.09,-19.14 277.25,-26.09"/>
</g>
<!-- storage/rook&#45;ceph/cr -->
<g id="node8" class="node">
<title>storage/rook&#45;ceph/cr</title>
<polygon fill="none" stroke="black" points="776.12,-252 613.12,-252 613.12,-216 776.12,-216 776.12,-252"/>
<text text-anchor="middle" x="694.62" y="-229.32" font-family="Times,serif" font-size="14.00">storage/rook&#45;ceph/cr</text>
</g>
<!-- storage/postgres&#45;&gt;storage/rook&#45;ceph/cr -->
<g id="edge16" class="edge">
<title>storage/postgres&#45;&gt;storage/rook&#45;ceph/cr</title>
<path fill="none" stroke="black" d="M241.81,-287.83C241.81,-266.5 241.81,-234 241.81,-234 241.81,-234 601.37,-234 601.37,-234"/>
<polygon fill="black" stroke="black" points="601.37,-237.5 611.37,-234 601.37,-230.5 601.37,-237.5"/>
</g>
<!-- auth/cert&#45;manager&#45;&gt;network/cilium -->
<g id="edge4" class="edge">
<title>auth/cert&#45;manager&#45;&gt;network/cilium</title>
<path fill="none" stroke="black" d="M91.62,-71.52C91.62,-48.45 91.62,-12 91.62,-12 91.62,-12 277.4,-12 277.4,-12"/>
<polygon fill="black" stroke="black" points="277.4,-15.5 287.4,-12 277.4,-8.5 277.4,-15.5"/>
</g>
<!-- monitoring/grafana -->
<g id="node6" class="node">
<title>monitoring/grafana</title>
<polygon fill="none" stroke="black" points="375.62,-108 221.62,-108 221.62,-72 375.62,-72 375.62,-108"/>
<text text-anchor="middle" x="298.62" y="-85.33" font-family="Times,serif" font-size="14.00">monitoring/grafana</text>
</g>
<!-- monitoring/grafana&#45;&gt;network/cilium -->
<g id="edge5" class="edge">
<title>monitoring/grafana&#45;&gt;network/cilium</title>
<path fill="none" stroke="black" d="M332.5,-71.83C332.5,-71.83 332.5,-47.93 332.5,-47.93"/>
<polygon fill="black" stroke="black" points="336,-47.93 332.5,-37.93 329,-47.93 336,-47.93"/>
</g>
<!-- monitoring/loki -->
<g id="node7" class="node">
<title>monitoring/loki</title>
<polygon fill="none" stroke="black" points="566,-324 441.25,-324 441.25,-288 566,-288 566,-324"/>
<text text-anchor="middle" x="503.62" y="-301.32" font-family="Times,serif" font-size="14.00">monitoring/loki</text>
</g>
<!-- monitoring/loki&#45;&gt;network/cilium -->
<g id="edge6" class="edge">
<title>monitoring/loki&#45;&gt;network/cilium</title>
<path fill="none" stroke="black" d="M440.9,-306C417.89,-306 397.38,-306 397.38,-306 397.38,-306 397.38,-47.97 397.38,-47.97"/>
<polygon fill="black" stroke="black" points="400.88,-47.97 397.38,-37.97 393.88,-47.97 400.88,-47.97"/>
</g>
<!-- monitoring/loki&#45;&gt;storage/rook&#45;ceph/cr -->
<g id="edge7" class="edge">
<title>monitoring/loki&#45;&gt;storage/rook&#45;ceph/cr</title>
<path fill="none" stroke="black" d="M566.25,-306C601.09,-306 637.5,-306 637.5,-306 637.5,-306 637.5,-263.68 637.5,-263.68"/>
<polygon fill="black" stroke="black" points="641,-263.68 637.5,-253.68 634,-263.68 641,-263.68"/>
</g>
<!-- storage/rook&#45;ceph -->
<g id="node13" class="node">
<title>storage/rook&#45;ceph</title>
<polygon fill="none" stroke="black" points="806.75,-180 662.5,-180 662.5,-144 806.75,-144 806.75,-180"/>
<text text-anchor="middle" x="734.62" y="-157.32" font-family="Times,serif" font-size="14.00">storage/rook&#45;ceph</text>
</g>
<!-- storage/rook&#45;ceph/cr&#45;&gt;storage/rook&#45;ceph -->
<g id="edge20" class="edge">
<title>storage/rook&#45;ceph/cr&#45;&gt;storage/rook&#45;ceph</title>
<path fill="none" stroke="black" d="M719.31,-215.83C719.31,-215.83 719.31,-191.93 719.31,-191.93"/>
<polygon fill="black" stroke="black" points="722.81,-191.93 719.31,-181.93 715.81,-191.93 722.81,-191.93"/>
</g>
<!-- monitoring/metrics&#45;server -->
<g id="node9" class="node">
<title>monitoring/metrics&#45;server</title>
<polygon fill="none" stroke="black" points="635.38,-108 431.88,-108 431.88,-72 635.38,-72 635.38,-108"/>
<text text-anchor="middle" x="533.62" y="-85.33" font-family="Times,serif" font-size="14.00">monitoring/metrics&#45;server</text>
</g>
<!-- monitoring/metrics&#45;server&#45;&gt;network/cilium -->
<g id="edge8" class="edge">
<title>monitoring/metrics&#45;server&#45;&gt;network/cilium</title>
<path fill="none" stroke="black" d="M431.67,-90C415.85,-90 404.62,-90 404.62,-90 404.62,-90 404.62,-47.68 404.62,-47.68"/>
<polygon fill="black" stroke="black" points="408.13,-47.68 404.63,-37.68 401.13,-47.68 408.13,-47.68"/>
</g>
<!-- monitoring/prometheus&#45;stack -->
<g id="node10" class="node">
<title>monitoring/prometheus&#45;stack</title>
<polygon fill="none" stroke="black" points="1166,-108 939.25,-108 939.25,-72 1166,-72 1166,-108"/>
<text text-anchor="middle" x="1052.62" y="-85.33" font-family="Times,serif" font-size="14.00">monitoring/prometheus&#45;stack</text>
</g>
<!-- monitoring/prometheus&#45;stack&#45;&gt;network/cilium -->
<g id="edge9" class="edge">
<title>monitoring/prometheus&#45;stack&#45;&gt;network/cilium</title>
<path fill="none" stroke="black" d="M1052.62,-71.62C1052.62,-47.72 1052.62,-9 1052.62,-9 1052.62,-9 423.82,-9 423.82,-9"/>
<polygon fill="black" stroke="black" points="423.82,-5.5 413.82,-9 423.82,-12.5 423.82,-5.5"/>
</g>
<!-- monitoring/prometheus&#45;stack/cr -->
<g id="node11" class="node">
<title>monitoring/prometheus&#45;stack/cr</title>
<polygon fill="none" stroke="black" points="907.38,-324 661.88,-324 661.88,-288 907.38,-288 907.38,-324"/>
<text text-anchor="middle" x="784.62" y="-301.32" font-family="Times,serif" font-size="14.00">monitoring/prometheus&#45;stack/cr</text>
</g>
<!-- monitoring/prometheus&#45;stack/cr&#45;&gt;storage/rook&#45;ceph/cr -->
<g id="edge10" class="edge">
<title>monitoring/prometheus&#45;stack/cr&#45;&gt;storage/rook&#45;ceph/cr</title>
<path fill="none" stroke="black" d="M719,-287.83C719,-287.83 719,-263.93 719,-263.93"/>
<polygon fill="black" stroke="black" points="722.5,-263.93 719,-253.93 715.5,-263.93 722.5,-263.93"/>
</g>
<!-- monitoring/prometheus&#45;stack/cr&#45;&gt;monitoring/prometheus&#45;stack -->
<g id="edge11" class="edge">
<title>monitoring/prometheus&#45;stack/cr&#45;&gt;monitoring/prometheus&#45;stack</title>
<path fill="none" stroke="black" d="M907.68,-306C992.65,-306 1090.42,-306 1090.42,-306 1090.42,-306 1090.42,-119.93 1090.42,-119.93"/>
<polygon fill="black" stroke="black" points="1093.92,-119.93 1090.42,-109.93 1086.92,-119.93 1093.92,-119.93"/>
</g>
<!-- storage/local&#45;path&#45;provisioner -->
<g id="node12" class="node">
<title>storage/local&#45;path&#45;provisioner</title>
<polygon fill="none" stroke="black" points="921.5,-108 691.75,-108 691.75,-72 921.5,-72 921.5,-108"/>
<text text-anchor="middle" x="806.62" y="-85.33" font-family="Times,serif" font-size="14.00">storage/local&#45;path&#45;provisioner</text>
</g>
<!-- storage/local&#45;path&#45;provisioner&#45;&gt;network/cilium -->
<g id="edge14" class="edge">
<title>storage/local&#45;path&#45;provisioner&#45;&gt;network/cilium</title>
<path fill="none" stroke="black" d="M806.62,-71.83C806.62,-50.5 806.62,-18 806.62,-18 806.62,-18 423.64,-18 423.64,-18"/>
<polygon fill="black" stroke="black" points="423.64,-14.5 413.64,-18 423.64,-21.5 423.64,-14.5"/>
</g>
<!-- storage/rook&#45;ceph&#45;&gt;network/cilium -->
<g id="edge17" class="edge">
<title>storage/rook&#45;ceph&#45;&gt;network/cilium</title>
<path fill="none" stroke="black" d="M677.12,-143.51C677.12,-106.54 677.12,-27 677.12,-27 677.12,-27 423.55,-27 423.55,-27"/>
<polygon fill="black" stroke="black" points="423.55,-23.5 413.55,-27 423.55,-30.5 423.55,-23.5"/>
</g>
<!-- storage/rook&#45;ceph&#45;&gt;monitoring/prometheus&#45;stack -->
<g id="edge19" class="edge">
<title>storage/rook&#45;ceph&#45;&gt;monitoring/prometheus&#45;stack</title>
<path fill="none" stroke="black" d="M807.15,-162C890.17,-162 1014.83,-162 1014.83,-162 1014.83,-162 1014.83,-119.68 1014.83,-119.68"/>
<polygon fill="black" stroke="black" points="1018.33,-119.68 1014.83,-109.68 1011.33,-119.68 1018.33,-119.68"/>
</g>
<!-- storage/rook&#45;ceph&#45;&gt;storage/local&#45;path&#45;provisioner -->
<g id="edge18" class="edge">
<title>storage/rook&#45;ceph&#45;&gt;storage/local&#45;path&#45;provisioner</title>
<path fill="none" stroke="black" d="M749.25,-143.83C749.25,-143.83 749.25,-119.93 749.25,-119.93"/>
<polygon fill="black" stroke="black" points="752.75,-119.93 749.25,-109.93 745.75,-119.93 752.75,-119.93"/>
</g>
</g>
</svg>
