<?xml version="1.0" encoding="UTF-8" standalone="no"?>
<!DOCTYPE svg PUBLIC "-//W3C//DTD SVG 1.1//EN"
 "http://www.w3.org/Graphics/SVG/1.1/DTD/svg11.dtd">
<!-- Generated by graphviz version 13.1.2 (0)
 -->
<!-- Pages: 1 -->
<svg width="1089pt" height="332pt"
 viewBox="0.00 0.00 1089.00 332.00" xmlns="http://www.w3.org/2000/svg" xmlns:xlink="http://www.w3.org/1999/xlink">
<g id="graph0" class="graph" transform="scale(1 1) rotate(0) translate(4 328)">
<polygon fill="white" stroke="none" points="-4,4 -4,-328 1084.88,-328 1084.88,4 -4,4"/>
<!-- auth/cert&#45;manager -->
<g id="node1" class="node">
<title>auth/cert&#45;manager</title>
<polygon fill="none" stroke="black" points="253.38,-108 104.62,-108 104.62,-72 253.38,-72 253.38,-108"/>
<text xml:space="preserve" text-anchor="middle" x="179" y="-85.33" font-family="Times,serif" font-size="14.00">auth/cert&#45;manager</text>
</g>
<!-- network/cilium -->
<g id="node2" class="node">
<title>network/cilium</title>
<polygon fill="none" stroke="black" points="537.25,-36 414.75,-36 414.75,0 537.25,0 537.25,-36"/>
<text xml:space="preserve" text-anchor="middle" x="476" y="-13.32" font-family="Times,serif" font-size="14.00">network/cilium</text>
</g>
<!-- auth/cert&#45;manager&#45;&gt;network/cilium -->
<g id="edge1" class="edge">
<title>auth/cert&#45;manager&#45;&gt;network/cilium</title>
<path fill="none" stroke="black" d="M179,-71.62C179,-52.09 179,-24 179,-24 179,-24 402.95,-24 402.95,-24"/>
<polygon fill="black" stroke="black" points="402.95,-27.5 412.95,-24 402.95,-20.5 402.95,-27.5"/>
</g>
<!-- monitoring/grafana -->
<g id="node3" class="node">
<title>monitoring/grafana</title>
<polygon fill="none" stroke="black" points="154,-252 0,-252 0,-216 154,-216 154,-252"/>
<text xml:space="preserve" text-anchor="middle" x="77" y="-229.32" font-family="Times,serif" font-size="14.00">monitoring/grafana</text>
</g>
<!-- monitoring/grafana&#45;&gt;network/cilium -->
<g id="edge2" class="edge">
<title>monitoring/grafana&#45;&gt;network/cilium</title>
<path fill="none" stroke="black" d="M52.31,-215.83C52.31,-162.81 52.31,-12 52.31,-12 52.31,-12 402.88,-12 402.88,-12"/>
<polygon fill="black" stroke="black" points="402.88,-15.5 412.88,-12 402.88,-8.5 402.88,-15.5"/>
</g>
<!-- network/cilium/cr -->
<g id="node4" class="node">
<title>network/cilium/cr</title>
<polygon fill="none" stroke="black" points="259.62,-180 118.38,-180 118.38,-144 259.62,-144 259.62,-180"/>
<text xml:space="preserve" text-anchor="middle" x="189" y="-157.32" font-family="Times,serif" font-size="14.00">network/cilium/cr</text>
</g>
<!-- monitoring/grafana&#45;&gt;network/cilium/cr -->
<g id="edge3" class="edge">
<title>monitoring/grafana&#45;&gt;network/cilium/cr</title>
<path fill="none" stroke="black" d="M136.19,-215.83C136.19,-215.83 136.19,-191.93 136.19,-191.93"/>
<polygon fill="black" stroke="black" points="139.69,-191.93 136.19,-181.93 132.69,-191.93 139.69,-191.93"/>
</g>
<!-- network/cilium/cr&#45;&gt;auth/cert&#45;manager -->
<g id="edge7" class="edge">
<title>network/cilium/cr&#45;&gt;auth/cert&#45;manager</title>
<path fill="none" stroke="black" d="M185.88,-143.83C185.88,-143.83 185.88,-119.93 185.88,-119.93"/>
<polygon fill="black" stroke="black" points="189.38,-119.93 185.88,-109.93 182.38,-119.93 189.38,-119.93"/>
</g>
<!-- network/cilium/cr&#45;&gt;network/cilium -->
<g id="edge6" class="edge">
<title>network/cilium/cr&#45;&gt;network/cilium</title>
<path fill="none" stroke="black" d="M260.05,-168C357.36,-168 520.19,-168 520.19,-168 520.19,-168 520.19,-47.91 520.19,-47.91"/>
<polygon fill="black" stroke="black" points="523.69,-47.91 520.19,-37.91 516.69,-47.91 523.69,-47.91"/>
</g>
<!-- monitoring/metrics&#45;server -->
<g id="node5" class="node">
<title>monitoring/metrics&#45;server</title>
<polygon fill="none" stroke="black" points="512.75,-108 309.25,-108 309.25,-72 512.75,-72 512.75,-108"/>
<text xml:space="preserve" text-anchor="middle" x="411" y="-85.33" font-family="Times,serif" font-size="14.00">monitoring/metrics&#45;server</text>
</g>
<!-- monitoring/metrics&#45;server&#45;&gt;network/cilium -->
<g id="edge4" class="edge">
<title>monitoring/metrics&#45;server&#45;&gt;network/cilium</title>
<path fill="none" stroke="black" d="M463.75,-71.83C463.75,-71.83 463.75,-47.93 463.75,-47.93"/>
<polygon fill="black" stroke="black" points="467.25,-47.93 463.75,-37.93 460.25,-47.93 467.25,-47.93"/>
</g>
<!-- monitoring/prometheus&#45;stack -->
<g id="node6" class="node">
<title>monitoring/prometheus&#45;stack</title>
<polygon fill="none" stroke="black" points="833.38,-108 606.62,-108 606.62,-72 833.38,-72 833.38,-108"/>
<text xml:space="preserve" text-anchor="middle" x="720" y="-85.33" font-family="Times,serif" font-size="14.00">monitoring/prometheus&#45;stack</text>
</g>
<!-- monitoring/prometheus&#45;stack&#45;&gt;network/cilium -->
<g id="edge5" class="edge">
<title>monitoring/prometheus&#45;stack&#45;&gt;network/cilium</title>
<path fill="none" stroke="black" d="M606.17,-90C567.95,-90 534.84,-90 534.84,-90 534.84,-90 534.84,-47.68 534.84,-47.68"/>
<polygon fill="black" stroke="black" points="538.34,-47.68 534.84,-37.68 531.34,-47.68 538.34,-47.68"/>
</g>
<!-- storage/local&#45;path&#45;provisioner -->
<g id="node7" class="node">
<title>storage/local&#45;path&#45;provisioner</title>
<polygon fill="none" stroke="black" points="1080.88,-108 851.12,-108 851.12,-72 1080.88,-72 1080.88,-108"/>
<text xml:space="preserve" text-anchor="middle" x="966" y="-85.33" font-family="Times,serif" font-size="14.00">storage/local&#45;path&#45;provisioner</text>
</g>
<!-- storage/local&#45;path&#45;provisioner&#45;&gt;network/cilium -->
<g id="edge8" class="edge">
<title>storage/local&#45;path&#45;provisioner&#45;&gt;network/cilium</title>
<path fill="none" stroke="black" d="M966,-71.83C966,-50.5 966,-18 966,-18 966,-18 549.08,-18 549.08,-18"/>
<polygon fill="black" stroke="black" points="549.08,-14.5 539.08,-18 549.08,-21.5 549.08,-14.5"/>
</g>
<!-- storage/postgres -->
<g id="node8" class="node">
<title>storage/postgres</title>
<polygon fill="none" stroke="black" points="664.38,-324 527.62,-324 527.62,-288 664.38,-288 664.38,-324"/>
<text xml:space="preserve" text-anchor="middle" x="596" y="-301.32" font-family="Times,serif" font-size="14.00">storage/postgres</text>
</g>
<!-- storage/postgres&#45;&gt;network/cilium -->
<g id="edge9" class="edge">
<title>storage/postgres&#45;&gt;network/cilium</title>
<path fill="none" stroke="black" d="M530.03,-287.55C530.03,-287.55 530.03,-47.81 530.03,-47.81"/>
<polygon fill="black" stroke="black" points="533.53,-47.81 530.03,-37.81 526.53,-47.81 533.53,-47.81"/>
</g>
<!-- storage/rook&#45;ceph/cr -->
<g id="node9" class="node">
<title>storage/rook&#45;ceph/cr</title>
<polygon fill="none" stroke="black" points="732.5,-252 569.5,-252 569.5,-216 732.5,-216 732.5,-252"/>
<text xml:space="preserve" text-anchor="middle" x="651" y="-229.32" font-family="Times,serif" font-size="14.00">storage/rook&#45;ceph/cr</text>
</g>
<!-- storage/postgres&#45;&gt;storage/rook&#45;ceph/cr -->
<g id="edge10" class="edge">
<title>storage/postgres&#45;&gt;storage/rook&#45;ceph/cr</title>
<path fill="none" stroke="black" d="M616.94,-287.83C616.94,-287.83 616.94,-263.93 616.94,-263.93"/>
<polygon fill="black" stroke="black" points="620.44,-263.93 616.94,-253.93 613.44,-263.93 620.44,-263.93"/>
</g>
<!-- storage/rook&#45;ceph -->
<g id="node10" class="node">
<title>storage/rook&#45;ceph</title>
<polygon fill="none" stroke="black" points="723.12,-180 578.88,-180 578.88,-144 723.12,-144 723.12,-180"/>
<text xml:space="preserve" text-anchor="middle" x="651" y="-157.32" font-family="Times,serif" font-size="14.00">storage/rook&#45;ceph</text>
</g>
<!-- storage/rook&#45;ceph/cr&#45;&gt;storage/rook&#45;ceph -->
<g id="edge13" class="edge">
<title>storage/rook&#45;ceph/cr&#45;&gt;storage/rook&#45;ceph</title>
<path fill="none" stroke="black" d="M651,-215.83C651,-215.83 651,-191.93 651,-191.93"/>
<polygon fill="black" stroke="black" points="654.5,-191.93 651,-181.93 647.5,-191.93 654.5,-191.93"/>
</g>
<!-- storage/rook&#45;ceph&#45;&gt;network/cilium -->
<g id="edge11" class="edge">
<title>storage/rook&#45;ceph&#45;&gt;network/cilium</title>
<path fill="none" stroke="black" d="M578.62,-156C553.93,-156 532.44,-156 532.44,-156 532.44,-156 532.44,-47.84 532.44,-47.84"/>
<polygon fill="black" stroke="black" points="535.94,-47.84 532.44,-37.84 528.94,-47.84 535.94,-47.84"/>
</g>
<!-- storage/rook&#45;ceph&#45;&gt;monitoring/prometheus&#45;stack -->
<g id="edge12" class="edge">
<title>storage/rook&#45;ceph&#45;&gt;monitoring/prometheus&#45;stack</title>
<path fill="none" stroke="black" d="M664.88,-143.83C664.88,-143.83 664.88,-119.93 664.88,-119.93"/>
<polygon fill="black" stroke="black" points="668.38,-119.93 664.88,-109.93 661.38,-119.93 668.38,-119.93"/>
</g>
<!-- temp -->
<g id="node11" class="node">
<title>temp</title>
<polygon fill="none" stroke="black" points="226,-252 172,-252 172,-216 226,-216 226,-252"/>
<text xml:space="preserve" text-anchor="middle" x="199" y="-229.32" font-family="Times,serif" font-size="14.00">temp</text>
</g>
<!-- temp&#45;&gt;network/cilium/cr -->
<g id="edge14" class="edge">
<title>temp&#45;&gt;network/cilium/cr</title>
<path fill="none" stroke="black" d="M199,-215.83C199,-215.83 199,-191.93 199,-191.93"/>
<polygon fill="black" stroke="black" points="202.5,-191.93 199,-181.93 195.5,-191.93 202.5,-191.93"/>
</g>
</g>
</svg>
