<?xml version="1.0" encoding="UTF-8" standalone="no"?>
<!DOCTYPE svg PUBLIC "-//W3C//DTD SVG 1.1//EN"
 "http://www.w3.org/Graphics/SVG/1.1/DTD/svg11.dtd">
<!-- Generated by graphviz version 2.43.0 (0)
 -->
<!-- Title: %3 Pages: 1 -->
<svg width="1284pt" height="332pt"
 viewBox="0.00 0.00 1283.53 332.00" xmlns="http://www.w3.org/2000/svg" xmlns:xlink="http://www.w3.org/1999/xlink">
<g id="graph0" class="graph" transform="scale(1 1) rotate(0) translate(4 328)">
<title>%3</title>
<polygon fill="white" stroke="transparent" points="-4,4 -4,-328 1279.53,-328 1279.53,4 -4,4"/>
<!-- monitoring/grafana -->
<g id="node1" class="node">
<title>monitoring/grafana</title>
<ellipse fill="none" stroke="black" cx="197.24" cy="-306" rx="100.98" ry="18"/>
<text text-anchor="middle" x="197.24" y="-302.3" font-family="Times,serif" font-size="14.00">monitoring/grafana</text>
</g>
<!-- monitoring/prometheus&#45;cr -->
<g id="node2" class="node">
<title>monitoring/prometheus&#45;cr</title>
<ellipse fill="none" stroke="black" cx="313.24" cy="-234" rx="132.68" ry="18"/>
<text text-anchor="middle" x="313.24" y="-230.3" font-family="Times,serif" font-size="14.00">monitoring/prometheus&#45;cr</text>
</g>
<!-- monitoring/grafana&#45;&gt;monitoring/prometheus&#45;cr -->
<g id="edge1" class="edge">
<title>monitoring/grafana&#45;&gt;monitoring/prometheus&#45;cr</title>
<path fill="none" stroke="black" d="M224.44,-288.59C240.06,-279.16 259.89,-267.2 276.84,-256.96"/>
<polygon fill="black" stroke="black" points="278.66,-259.96 285.41,-251.8 275.04,-253.97 278.66,-259.96"/>
</g>
<!-- monitoring/loki -->
<g id="node3" class="node">
<title>monitoring/loki</title>
<ellipse fill="none" stroke="black" cx="81.24" cy="-234" rx="81.49" ry="18"/>
<text text-anchor="middle" x="81.24" y="-230.3" font-family="Times,serif" font-size="14.00">monitoring/loki</text>
</g>
<!-- monitoring/grafana&#45;&gt;monitoring/loki -->
<g id="edge2" class="edge">
<title>monitoring/grafana&#45;&gt;monitoring/loki</title>
<path fill="none" stroke="black" d="M170.05,-288.59C154.08,-278.95 133.72,-266.67 116.53,-256.3"/>
<polygon fill="black" stroke="black" points="118.24,-253.24 107.87,-251.07 114.62,-259.23 118.24,-253.24"/>
</g>
<!-- storage/rook&#45;ceph -->
<g id="node5" class="node">
<title>storage/rook&#45;ceph</title>
<ellipse fill="none" stroke="black" cx="216.24" cy="-162" rx="94.48" ry="18"/>
<text text-anchor="middle" x="216.24" y="-158.3" font-family="Times,serif" font-size="14.00">storage/rook&#45;ceph</text>
</g>
<!-- monitoring/prometheus&#45;cr&#45;&gt;storage/rook&#45;ceph -->
<g id="edge10" class="edge">
<title>monitoring/prometheus&#45;cr&#45;&gt;storage/rook&#45;ceph</title>
<path fill="none" stroke="black" d="M289.76,-216.05C277.04,-206.87 261.15,-195.41 247.41,-185.49"/>
<polygon fill="black" stroke="black" points="249.33,-182.56 239.17,-179.55 245.23,-188.24 249.33,-182.56"/>
</g>
<!-- monitoring/prometheus -->
<g id="node8" class="node">
<title>monitoring/prometheus</title>
<ellipse fill="none" stroke="black" cx="229.24" cy="-90" rx="120.48" ry="18"/>
<text text-anchor="middle" x="229.24" y="-86.3" font-family="Times,serif" font-size="14.00">monitoring/prometheus</text>
</g>
<!-- monitoring/prometheus&#45;cr&#45;&gt;monitoring/prometheus -->
<g id="edge9" class="edge">
<title>monitoring/prometheus&#45;cr&#45;&gt;monitoring/prometheus</title>
<path fill="none" stroke="black" d="M319.68,-216.01C325.69,-197.11 332,-166.32 319.24,-144 311.34,-130.18 298.28,-119.61 284.53,-111.68"/>
<polygon fill="black" stroke="black" points="285.9,-108.45 275.43,-106.84 282.62,-114.63 285.9,-108.45"/>
</g>
<!-- network/cilium -->
<g id="node4" class="node">
<title>network/cilium</title>
<ellipse fill="none" stroke="black" cx="667.24" cy="-18" rx="79.89" ry="18"/>
<text text-anchor="middle" x="667.24" y="-14.3" font-family="Times,serif" font-size="14.00">network/cilium</text>
</g>
<!-- monitoring/loki&#45;&gt;network/cilium -->
<g id="edge3" class="edge">
<title>monitoring/loki&#45;&gt;network/cilium</title>
<path fill="none" stroke="black" d="M77.17,-215.95C70.4,-182.93 61.17,-110.14 100.24,-72 133.68,-39.37 426.89,-26.03 578,-21.28"/>
<polygon fill="black" stroke="black" points="578.3,-24.78 588.19,-20.97 578.09,-17.78 578.3,-24.78"/>
</g>
<!-- monitoring/loki&#45;&gt;storage/rook&#45;ceph -->
<g id="edge4" class="edge">
<title>monitoring/loki&#45;&gt;storage/rook&#45;ceph</title>
<path fill="none" stroke="black" d="M111.54,-217.29C130.64,-207.39 155.51,-194.49 176.22,-183.75"/>
<polygon fill="black" stroke="black" points="177.84,-186.85 185.11,-179.14 174.62,-180.64 177.84,-186.85"/>
</g>
<!-- monitoring/namespace -->
<g id="node6" class="node">
<title>monitoring/namespace</title>
<ellipse fill="none" stroke="black" cx="136.24" cy="-18" rx="116.18" ry="18"/>
<text text-anchor="middle" x="136.24" y="-14.3" font-family="Times,serif" font-size="14.00">monitoring/namespace</text>
</g>
<!-- monitoring/loki&#45;&gt;monitoring/namespace -->
<g id="edge5" class="edge">
<title>monitoring/loki&#45;&gt;monitoring/namespace</title>
<path fill="none" stroke="black" d="M74.23,-215.95C62.8,-185.34 43.68,-119.82 67.24,-72 73.36,-59.58 83.94,-49.26 95.01,-41.13"/>
<polygon fill="black" stroke="black" points="97.21,-43.87 103.49,-35.34 93.26,-38.09 97.21,-43.87"/>
</g>
<!-- storage/rook&#45;ceph&#45;&gt;monitoring/prometheus -->
<g id="edge14" class="edge">
<title>storage/rook&#45;ceph&#45;&gt;monitoring/prometheus</title>
<path fill="none" stroke="black" d="M219.46,-143.7C220.89,-135.98 222.61,-126.71 224.21,-118.11"/>
<polygon fill="black" stroke="black" points="227.68,-118.58 226.07,-108.1 220.8,-117.3 227.68,-118.58"/>
</g>
<!-- storage/local&#45;path&#45;provisioner -->
<g id="node10" class="node">
<title>storage/local&#45;path&#45;provisioner</title>
<ellipse fill="none" stroke="black" cx="517.24" cy="-90" rx="149.47" ry="18"/>
<text text-anchor="middle" x="517.24" y="-86.3" font-family="Times,serif" font-size="14.00">storage/local&#45;path&#45;provisioner</text>
</g>
<!-- storage/rook&#45;ceph&#45;&gt;storage/local&#45;path&#45;provisioner -->
<g id="edge13" class="edge">
<title>storage/rook&#45;ceph&#45;&gt;storage/local&#45;path&#45;provisioner</title>
<path fill="none" stroke="black" d="M273.57,-147.67C321.32,-136.56 389.71,-120.66 441.88,-108.53"/>
<polygon fill="black" stroke="black" points="442.81,-111.9 451.76,-106.23 441.23,-105.08 442.81,-111.9"/>
</g>
<!-- monitoring/metrics&#45;server -->
<g id="node7" class="node">
<title>monitoring/metrics&#45;server</title>
<ellipse fill="none" stroke="black" cx="817.24" cy="-90" rx="132.68" ry="18"/>
<text text-anchor="middle" x="817.24" y="-86.3" font-family="Times,serif" font-size="14.00">monitoring/metrics&#45;server</text>
</g>
<!-- monitoring/metrics&#45;server&#45;&gt;network/cilium -->
<g id="edge6" class="edge">
<title>monitoring/metrics&#45;server&#45;&gt;network/cilium</title>
<path fill="none" stroke="black" d="M782.07,-72.59C760.38,-62.47 732.43,-49.42 709.54,-38.74"/>
<polygon fill="black" stroke="black" points="710.93,-35.53 700.39,-34.47 707.97,-41.87 710.93,-35.53"/>
</g>
<!-- monitoring/prometheus&#45;&gt;network/cilium -->
<g id="edge7" class="edge">
<title>monitoring/prometheus&#45;&gt;network/cilium</title>
<path fill="none" stroke="black" d="M308.05,-76.4C389.3,-63.42 514.97,-43.34 594.08,-30.69"/>
<polygon fill="black" stroke="black" points="594.65,-34.15 603.97,-29.11 593.54,-27.23 594.65,-34.15"/>
</g>
<!-- monitoring/prometheus&#45;&gt;monitoring/namespace -->
<g id="edge8" class="edge">
<title>monitoring/prometheus&#45;&gt;monitoring/namespace</title>
<path fill="none" stroke="black" d="M206.73,-72.05C194.74,-63.03 179.81,-51.79 166.78,-41.99"/>
<polygon fill="black" stroke="black" points="168.64,-39.01 158.55,-35.79 164.43,-44.6 168.64,-39.01"/>
</g>
<!-- network/cilium&#45;cr -->
<g id="node9" class="node">
<title>network/cilium&#45;cr</title>
<ellipse fill="none" stroke="black" cx="1183.24" cy="-90" rx="92.08" ry="18"/>
<text text-anchor="middle" x="1183.24" y="-86.3" font-family="Times,serif" font-size="14.00">network/cilium&#45;cr</text>
</g>
<!-- network/cilium&#45;cr&#45;&gt;network/cilium -->
<g id="edge11" class="edge">
<title>network/cilium&#45;cr&#45;&gt;network/cilium</title>
<path fill="none" stroke="black" d="M1116.75,-77.42C1105.26,-75.53 1093.41,-73.65 1082.24,-72 965.73,-54.76 830.31,-38.1 746.69,-28.19"/>
<polygon fill="black" stroke="black" points="747.09,-24.72 736.75,-27.02 746.27,-31.67 747.09,-24.72"/>
</g>
<!-- storage/local&#45;path&#45;provisioner&#45;&gt;network/cilium -->
<g id="edge12" class="edge">
<title>storage/local&#45;path&#45;provisioner&#45;&gt;network/cilium</title>
<path fill="none" stroke="black" d="M552.79,-72.41C574.42,-62.32 602.16,-49.37 624.91,-38.75"/>
<polygon fill="black" stroke="black" points="626.42,-41.91 634.01,-34.51 623.46,-35.57 626.42,-41.91"/>
</g>
<!-- workflow -->
<g id="node11" class="node">
<title>workflow</title>
<ellipse fill="none" stroke="black" cx="1020.24" cy="-90" rx="52.79" ry="18"/>
<text text-anchor="middle" x="1020.24" y="-86.3" font-family="Times,serif" font-size="14.00">workflow</text>
</g>
<!-- workflow&#45;&gt;network/cilium -->
<g id="edge15" class="edge">
<title>workflow&#45;&gt;network/cilium</title>
<path fill="none" stroke="black" d="M981.66,-77.67C974.25,-75.66 966.53,-73.67 959.24,-72 885.55,-55.08 800.38,-40.14 741.12,-30.47"/>
<polygon fill="black" stroke="black" points="741.53,-26.99 731.1,-28.85 740.41,-33.9 741.53,-26.99"/>
</g>
</g>
</svg>
