<?xml version="1.0" encoding="UTF-8" standalone="no"?>
<!DOCTYPE svg PUBLIC "-//W3C//DTD SVG 1.1//EN"
 "http://www.w3.org/Graphics/SVG/1.1/DTD/svg11.dtd">
<!-- Generated by graphviz version 2.43.0 (0)
 -->
<!-- Title: %3 Pages: 1 -->
<svg width="1175pt" height="188pt"
 viewBox="0.00 0.00 1175.23 188.00" xmlns="http://www.w3.org/2000/svg" xmlns:xlink="http://www.w3.org/1999/xlink">
<g id="graph0" class="graph" transform="scale(1 1) rotate(0) translate(4 184)">
<title>%3</title>
<polygon fill="white" stroke="transparent" points="-4,4 -4,-184 1171.23,-184 1171.23,4 -4,4"/>
<!-- monitoring/metrics&#45;server -->
<g id="node1" class="node">
<title>monitoring/metrics&#45;server</title>
<ellipse fill="none" stroke="black" cx="132.59" cy="-90" rx="132.68" ry="18"/>
<text text-anchor="middle" x="132.59" y="-86.3" font-family="Times,serif" font-size="14.00">monitoring/metrics&#45;server</text>
</g>
<!-- network/cilium -->
<g id="node2" class="node">
<title>network/cilium</title>
<ellipse fill="none" stroke="black" cx="691.59" cy="-18" rx="79.89" ry="18"/>
<text text-anchor="middle" x="691.59" y="-14.3" font-family="Times,serif" font-size="14.00">network/cilium</text>
</g>
<!-- monitoring/metrics&#45;server&#45;&gt;network/cilium -->
<g id="edge1" class="edge">
<title>monitoring/metrics&#45;server&#45;&gt;network/cilium</title>
<path fill="none" stroke="black" d="M226.47,-77.24C335,-63.65 511.7,-41.53 613.19,-28.82"/>
<polygon fill="black" stroke="black" points="613.89,-32.26 623.38,-27.54 613.02,-25.31 613.89,-32.26"/>
</g>
<!-- monitoring/prometheus -->
<g id="node3" class="node">
<title>monitoring/prometheus</title>
<ellipse fill="none" stroke="black" cx="403.59" cy="-90" rx="120.48" ry="18"/>
<text text-anchor="middle" x="403.59" y="-86.3" font-family="Times,serif" font-size="14.00">monitoring/prometheus</text>
</g>
<!-- monitoring/prometheus&#45;&gt;network/cilium -->
<g id="edge2" class="edge">
<title>monitoring/prometheus&#45;&gt;network/cilium</title>
<path fill="none" stroke="black" d="M463.96,-74.33C512.57,-62.51 580.63,-45.97 629.65,-34.05"/>
<polygon fill="black" stroke="black" points="630.61,-37.42 639.5,-31.66 628.96,-30.62 630.61,-37.42"/>
</g>
<!-- monitoring/prometheus&#45;cr -->
<g id="node4" class="node">
<title>monitoring/prometheus&#45;cr</title>
<ellipse fill="none" stroke="black" cx="403.59" cy="-162" rx="132.68" ry="18"/>
<text text-anchor="middle" x="403.59" y="-158.3" font-family="Times,serif" font-size="14.00">monitoring/prometheus&#45;cr</text>
</g>
<!-- monitoring/prometheus&#45;cr&#45;&gt;monitoring/prometheus -->
<g id="edge3" class="edge">
<title>monitoring/prometheus&#45;cr&#45;&gt;monitoring/prometheus</title>
<path fill="none" stroke="black" d="M403.59,-143.7C403.59,-135.98 403.59,-126.71 403.59,-118.11"/>
<polygon fill="black" stroke="black" points="407.09,-118.1 403.59,-108.1 400.09,-118.1 407.09,-118.1"/>
</g>
<!-- network/cilium&#45;cr -->
<g id="node5" class="node">
<title>network/cilium&#45;cr</title>
<ellipse fill="none" stroke="black" cx="951.59" cy="-90" rx="92.08" ry="18"/>
<text text-anchor="middle" x="951.59" y="-86.3" font-family="Times,serif" font-size="14.00">network/cilium&#45;cr</text>
</g>
<!-- network/cilium&#45;cr&#45;&gt;network/cilium -->
<g id="edge4" class="edge">
<title>network/cilium&#45;cr&#45;&gt;network/cilium</title>
<path fill="none" stroke="black" d="M899.6,-75C856.61,-63.43 795.57,-47 750.73,-34.92"/>
<polygon fill="black" stroke="black" points="751.41,-31.48 740.85,-32.26 749.59,-38.24 751.41,-31.48"/>
</g>
<!-- storage/local&#45;path&#45;provisioner -->
<g id="node6" class="node">
<title>storage/local&#45;path&#45;provisioner</title>
<ellipse fill="none" stroke="black" cx="691.59" cy="-90" rx="149.47" ry="18"/>
<text text-anchor="middle" x="691.59" y="-86.3" font-family="Times,serif" font-size="14.00">storage/local&#45;path&#45;provisioner</text>
</g>
<!-- storage/local&#45;path&#45;provisioner&#45;&gt;network/cilium -->
<g id="edge5" class="edge">
<title>storage/local&#45;path&#45;provisioner&#45;&gt;network/cilium</title>
<path fill="none" stroke="black" d="M691.59,-71.7C691.59,-63.98 691.59,-54.71 691.59,-46.11"/>
<polygon fill="black" stroke="black" points="695.09,-46.1 691.59,-36.1 688.09,-46.1 695.09,-46.1"/>
</g>
<!-- storage/rook&#45;ceph -->
<g id="node7" class="node">
<title>storage/rook&#45;ceph</title>
<ellipse fill="none" stroke="black" cx="669.59" cy="-162" rx="94.48" ry="18"/>
<text text-anchor="middle" x="669.59" y="-158.3" font-family="Times,serif" font-size="14.00">storage/rook&#45;ceph</text>
</g>
<!-- storage/rook&#45;ceph&#45;&gt;monitoring/prometheus -->
<g id="edge7" class="edge">
<title>storage/rook&#45;ceph&#45;&gt;monitoring/prometheus</title>
<path fill="none" stroke="black" d="M616.72,-147.09C574.65,-136.02 515.54,-120.46 470.24,-108.54"/>
<polygon fill="black" stroke="black" points="471.06,-105.14 460.5,-105.98 469.28,-111.91 471.06,-105.14"/>
</g>
<!-- storage/rook&#45;ceph&#45;&gt;storage/local&#45;path&#45;provisioner -->
<g id="edge6" class="edge">
<title>storage/rook&#45;ceph&#45;&gt;storage/local&#45;path&#45;provisioner</title>
<path fill="none" stroke="black" d="M675.03,-143.7C677.48,-135.9 680.43,-126.51 683.16,-117.83"/>
<polygon fill="black" stroke="black" points="686.55,-118.69 686.21,-108.1 679.88,-116.59 686.55,-118.69"/>
</g>
<!-- workflow -->
<g id="node8" class="node">
<title>workflow</title>
<ellipse fill="none" stroke="black" cx="1114.59" cy="-90" rx="52.79" ry="18"/>
<text text-anchor="middle" x="1114.59" y="-86.3" font-family="Times,serif" font-size="14.00">workflow</text>
</g>
<!-- workflow&#45;&gt;network/cilium -->
<g id="edge8" class="edge">
<title>workflow&#45;&gt;network/cilium</title>
<path fill="none" stroke="black" d="M1076.07,-77.66C1068.34,-75.6 1060.23,-73.6 1052.59,-72 956.81,-51.92 845.17,-36.77 771.69,-27.92"/>
<polygon fill="black" stroke="black" points="771.92,-24.42 761.58,-26.71 771.09,-31.37 771.92,-24.42"/>
</g>
</g>
</svg>
