<?xml version="1.0" encoding="UTF-8" standalone="no"?>
<!DOCTYPE svg PUBLIC "-//W3C//DTD SVG 1.1//EN"
 "http://www.w3.org/Graphics/SVG/1.1/DTD/svg11.dtd">
<!-- Generated by graphviz version 12.1.2 (0)
 -->
<!-- Pages: 1 -->
<svg width="1062pt" height="404pt"
 viewBox="0.00 0.00 1062.38 404.00" xmlns="http://www.w3.org/2000/svg" xmlns:xlink="http://www.w3.org/1999/xlink">
<g id="graph0" class="graph" transform="scale(1 1) rotate(0) translate(4 400)">
<polygon fill="white" stroke="none" points="-4,4 -4,-400 1058.38,-400 1058.38,4 -4,4"/>
<!-- auth/casdoor -->
<g id="node1" class="node">
<title>auth/casdoor</title>
<polygon fill="none" stroke="black" points="308.12,-396 199.88,-396 199.88,-360 308.12,-360 308.12,-396"/>
<text text-anchor="middle" x="254" y="-373.32" font-family="Times,serif" font-size="14.00">auth/casdoor</text>
</g>
<!-- network/cilium -->
<g id="node2" class="node">
<title>network/cilium</title>
<polygon fill="none" stroke="black" points="302.25,-36 179.75,-36 179.75,0 302.25,0 302.25,-36"/>
<text text-anchor="middle" x="241" y="-13.32" font-family="Times,serif" font-size="14.00">network/cilium</text>
</g>
<!-- auth/casdoor&#45;&gt;network/cilium -->
<g id="edge1" class="edge">
<title>auth/casdoor&#45;&gt;network/cilium</title>
<path fill="none" stroke="black" d="M275.88,-359.65C275.88,-359.65 275.88,-47.82 275.88,-47.82"/>
<polygon fill="black" stroke="black" points="279.38,-47.82 275.88,-37.82 272.38,-47.82 279.38,-47.82"/>
</g>
<!-- network/cilium/cr -->
<g id="node3" class="node">
<title>network/cilium/cr</title>
<polygon fill="none" stroke="black" points="260.62,-180 119.38,-180 119.38,-144 260.62,-144 260.62,-180"/>
<text text-anchor="middle" x="190" y="-157.32" font-family="Times,serif" font-size="14.00">network/cilium/cr</text>
</g>
<!-- auth/casdoor&#45;&gt;network/cilium/cr -->
<g id="edge2" class="edge">
<title>auth/casdoor&#45;&gt;network/cilium/cr</title>
<path fill="none" stroke="black" d="M243.31,-359.58C243.31,-359.58 243.31,-191.88 243.31,-191.88"/>
<polygon fill="black" stroke="black" points="246.81,-191.88 243.31,-181.88 239.81,-191.88 246.81,-191.88"/>
</g>
<!-- storage/postgres -->
<g id="node4" class="node">
<title>storage/postgres</title>
<polygon fill="none" stroke="black" points="418.38,-324 281.62,-324 281.62,-288 418.38,-288 418.38,-324"/>
<text text-anchor="middle" x="350" y="-301.32" font-family="Times,serif" font-size="14.00">storage/postgres</text>
</g>
<!-- auth/casdoor&#45;&gt;storage/postgres -->
<g id="edge3" class="edge">
<title>auth/casdoor&#45;&gt;storage/postgres</title>
<path fill="none" stroke="black" d="M294.88,-359.83C294.88,-359.83 294.88,-335.93 294.88,-335.93"/>
<polygon fill="black" stroke="black" points="298.38,-335.93 294.88,-325.93 291.38,-335.93 298.38,-335.93"/>
</g>
<!-- network/cilium/cr&#45;&gt;network/cilium -->
<g id="edge13" class="edge">
<title>network/cilium/cr&#45;&gt;network/cilium</title>
<path fill="none" stroke="black" d="M260.93,-156C266.56,-156 270.12,-156 270.12,-156 270.12,-156 270.12,-47.84 270.12,-47.84"/>
<polygon fill="black" stroke="black" points="273.63,-47.84 270.13,-37.84 266.63,-47.84 273.63,-47.84"/>
</g>
<!-- auth/cert&#45;manager -->
<g id="node5" class="node">
<title>auth/cert&#45;manager</title>
<polygon fill="none" stroke="black" points="264.38,-108 115.62,-108 115.62,-72 264.38,-72 264.38,-108"/>
<text text-anchor="middle" x="190" y="-85.33" font-family="Times,serif" font-size="14.00">auth/cert&#45;manager</text>
</g>
<!-- network/cilium/cr&#45;&gt;auth/cert&#45;manager -->
<g id="edge14" class="edge">
<title>network/cilium/cr&#45;&gt;auth/cert&#45;manager</title>
<path fill="none" stroke="black" d="M190,-143.83C190,-143.83 190,-119.93 190,-119.93"/>
<polygon fill="black" stroke="black" points="193.5,-119.93 190,-109.93 186.5,-119.93 193.5,-119.93"/>
</g>
<!-- storage/postgres&#45;&gt;network/cilium -->
<g id="edge16" class="edge">
<title>storage/postgres&#45;&gt;network/cilium</title>
<path fill="none" stroke="black" d="M285.75,-287.55C285.75,-287.55 285.75,-47.81 285.75,-47.81"/>
<polygon fill="black" stroke="black" points="289.25,-47.81 285.75,-37.81 282.25,-47.81 289.25,-47.81"/>
</g>
<!-- storage/rook&#45;ceph/cr -->
<g id="node9" class="node">
<title>storage/rook&#45;ceph/cr</title>
<polygon fill="none" stroke="black" points="691.5,-252 528.5,-252 528.5,-216 691.5,-216 691.5,-252"/>
<text text-anchor="middle" x="610" y="-229.32" font-family="Times,serif" font-size="14.00">storage/rook&#45;ceph/cr</text>
</g>
<!-- storage/postgres&#45;&gt;storage/rook&#45;ceph/cr -->
<g id="edge17" class="edge">
<title>storage/postgres&#45;&gt;storage/rook&#45;ceph/cr</title>
<path fill="none" stroke="black" d="M369.31,-287.83C369.31,-266.5 369.31,-234 369.31,-234 369.31,-234 516.66,-234 516.66,-234"/>
<polygon fill="black" stroke="black" points="516.66,-237.5 526.66,-234 516.66,-230.5 516.66,-237.5"/>
</g>
<!-- auth/cert&#45;manager&#45;&gt;network/cilium -->
<g id="edge4" class="edge">
<title>auth/cert&#45;manager&#45;&gt;network/cilium</title>
<path fill="none" stroke="black" d="M222.06,-71.83C222.06,-71.83 222.06,-47.93 222.06,-47.93"/>
<polygon fill="black" stroke="black" points="225.56,-47.93 222.06,-37.93 218.56,-47.93 225.56,-47.93"/>
</g>
<!-- auth/rbac -->
<g id="node6" class="node">
<title>auth/rbac</title>
<polygon fill="none" stroke="black" points="410.12,-396 325.88,-396 325.88,-360 410.12,-360 410.12,-396"/>
<text text-anchor="middle" x="368" y="-373.32" font-family="Times,serif" font-size="14.00">auth/rbac</text>
</g>
<!-- monitoring/grafana -->
<g id="node7" class="node">
<title>monitoring/grafana</title>
<polygon fill="none" stroke="black" points="154,-252 0,-252 0,-216 154,-216 154,-252"/>
<text text-anchor="middle" x="77" y="-229.32" font-family="Times,serif" font-size="14.00">monitoring/grafana</text>
</g>
<!-- monitoring/grafana&#45;&gt;network/cilium -->
<g id="edge5" class="edge">
<title>monitoring/grafana&#45;&gt;network/cilium</title>
<path fill="none" stroke="black" d="M57.81,-215.58C57.81,-163.35 57.81,-18 57.81,-18 57.81,-18 167.98,-18 167.98,-18"/>
<polygon fill="black" stroke="black" points="167.98,-21.5 177.98,-18 167.98,-14.5 167.98,-21.5"/>
</g>
<!-- monitoring/grafana&#45;&gt;network/cilium/cr -->
<g id="edge6" class="edge">
<title>monitoring/grafana&#45;&gt;network/cilium/cr</title>
<path fill="none" stroke="black" d="M136.69,-215.83C136.69,-215.83 136.69,-191.93 136.69,-191.93"/>
<polygon fill="black" stroke="black" points="140.19,-191.93 136.69,-181.93 133.19,-191.93 140.19,-191.93"/>
</g>
<!-- monitoring/loki -->
<g id="node8" class="node">
<title>monitoring/loki</title>
<polygon fill="none" stroke="black" points="587.38,-324 462.62,-324 462.62,-288 587.38,-288 587.38,-324"/>
<text text-anchor="middle" x="525" y="-301.32" font-family="Times,serif" font-size="14.00">monitoring/loki</text>
</g>
<!-- monitoring/loki&#45;&gt;network/cilium -->
<g id="edge7" class="edge">
<title>monitoring/loki&#45;&gt;network/cilium</title>
<path fill="none" stroke="black" d="M493.19,-287.58C493.19,-278.72 493.19,-270 493.19,-270 493.19,-270 289.88,-270 289.88,-270 289.88,-270 289.88,-47.64 289.88,-47.64"/>
<polygon fill="black" stroke="black" points="293.38,-47.64 289.88,-37.64 286.38,-47.64 293.38,-47.64"/>
</g>
<!-- monitoring/loki&#45;&gt;storage/rook&#45;ceph/cr -->
<g id="edge8" class="edge">
<title>monitoring/loki&#45;&gt;storage/rook&#45;ceph/cr</title>
<path fill="none" stroke="black" d="M557.94,-287.83C557.94,-287.83 557.94,-263.93 557.94,-263.93"/>
<polygon fill="black" stroke="black" points="561.44,-263.93 557.94,-253.93 554.44,-263.93 561.44,-263.93"/>
</g>
<!-- storage/rook&#45;ceph -->
<g id="node14" class="node">
<title>storage/rook&#45;ceph</title>
<polygon fill="none" stroke="black" points="695.12,-180 550.88,-180 550.88,-144 695.12,-144 695.12,-180"/>
<text text-anchor="middle" x="623" y="-157.32" font-family="Times,serif" font-size="14.00">storage/rook&#45;ceph</text>
</g>
<!-- storage/rook&#45;ceph/cr&#45;&gt;storage/rook&#45;ceph -->
<g id="edge21" class="edge">
<title>storage/rook&#45;ceph/cr&#45;&gt;storage/rook&#45;ceph</title>
<path fill="none" stroke="black" d="M621.19,-215.83C621.19,-215.83 621.19,-191.93 621.19,-191.93"/>
<polygon fill="black" stroke="black" points="624.69,-191.93 621.19,-181.93 617.69,-191.93 624.69,-191.93"/>
</g>
<!-- monitoring/metrics&#45;server -->
<g id="node10" class="node">
<title>monitoring/metrics&#45;server</title>
<polygon fill="none" stroke="black" points="523.75,-108 320.25,-108 320.25,-72 523.75,-72 523.75,-108"/>
<text text-anchor="middle" x="422" y="-85.33" font-family="Times,serif" font-size="14.00">monitoring/metrics&#45;server</text>
</g>
<!-- monitoring/metrics&#45;server&#45;&gt;network/cilium -->
<g id="edge9" class="edge">
<title>monitoring/metrics&#45;server&#45;&gt;network/cilium</title>
<path fill="none" stroke="black" d="M319.99,-90C306.99,-90 298.12,-90 298.12,-90 298.12,-90 298.12,-47.68 298.12,-47.68"/>
<polygon fill="black" stroke="black" points="301.63,-47.68 298.13,-37.68 294.63,-47.68 301.63,-47.68"/>
</g>
<!-- monitoring/prometheus&#45;stack -->
<g id="node11" class="node">
<title>monitoring/prometheus&#45;stack</title>
<polygon fill="none" stroke="black" points="1054.38,-108 827.62,-108 827.62,-72 1054.38,-72 1054.38,-108"/>
<text text-anchor="middle" x="941" y="-85.33" font-family="Times,serif" font-size="14.00">monitoring/prometheus&#45;stack</text>
</g>
<!-- monitoring/prometheus&#45;stack&#45;&gt;network/cilium -->
<g id="edge10" class="edge">
<title>monitoring/prometheus&#45;stack&#45;&gt;network/cilium</title>
<path fill="none" stroke="black" d="M941,-71.52C941,-48.45 941,-12 941,-12 941,-12 941,-0.49 941,-0.49"/>
<polygon fill="black" stroke="black" points="313.96,-8.29 304.02,-11.97 314.08,-15.29 313.96,-8.29"/>
</g>
<!-- monitoring/prometheus&#45;stack/cr -->
<g id="node12" class="node">
<title>monitoring/prometheus&#45;stack/cr</title>
<polygon fill="none" stroke="black" points="956.75,-324 711.25,-324 711.25,-288 956.75,-288 956.75,-324"/>
<text text-anchor="middle" x="834" y="-301.32" font-family="Times,serif" font-size="14.00">monitoring/prometheus&#45;stack/cr</text>
</g>
<!-- monitoring/prometheus&#45;stack/cr&#45;&gt;storage/rook&#45;ceph/cr -->
<g id="edge11" class="edge">
<title>monitoring/prometheus&#45;stack/cr&#45;&gt;storage/rook&#45;ceph/cr</title>
<path fill="none" stroke="black" d="M760.56,-287.83C760.56,-266.5 760.56,-234 760.56,-234 760.56,-234 703.4,-234 703.4,-234"/>
<polygon fill="black" stroke="black" points="703.4,-230.5 693.4,-234 703.4,-237.5 703.4,-230.5"/>
</g>
<!-- monitoring/prometheus&#45;stack/cr&#45;&gt;monitoring/prometheus&#45;stack -->
<g id="edge12" class="edge">
<title>monitoring/prometheus&#45;stack/cr&#45;&gt;monitoring/prometheus&#45;stack</title>
<path fill="none" stroke="black" d="M913.71,-287.58C913.71,-287.58 913.71,-119.88 913.71,-119.88"/>
<polygon fill="black" stroke="black" points="917.21,-119.88 913.71,-109.88 910.21,-119.88 917.21,-119.88"/>
</g>
<!-- storage/local&#45;path&#45;provisioner -->
<g id="node13" class="node">
<title>storage/local&#45;path&#45;provisioner</title>
<polygon fill="none" stroke="black" points="809.88,-108 580.12,-108 580.12,-72 809.88,-72 809.88,-108"/>
<text text-anchor="middle" x="695" y="-85.33" font-family="Times,serif" font-size="14.00">storage/local&#45;path&#45;provisioner</text>
</g>
<!-- storage/local&#45;path&#45;provisioner&#45;&gt;network/cilium -->
<g id="edge15" class="edge">
<title>storage/local&#45;path&#45;provisioner&#45;&gt;network/cilium</title>
<path fill="none" stroke="black" d="M695,-71.62C695,-52.09 695,-24 695,-24 695,-24 695,-12.49 695,-12.49"/>
<polygon fill="black" stroke="black" points="314.11,-20.16 304.21,-23.96 314.31,-27.16 314.11,-20.16"/>
</g>
<!-- storage/rook&#45;ceph&#45;&gt;network/cilium -->
<g id="edge18" class="edge">
<title>storage/rook&#45;ceph&#45;&gt;network/cilium</title>
<path fill="none" stroke="black" d="M550.39,-168C453.51,-168 294,-168 294,-168 294,-168 294,-47.91 294,-47.91"/>
<polygon fill="black" stroke="black" points="297.5,-47.91 294,-37.91 290.5,-47.91 297.5,-47.91"/>
</g>
<!-- storage/rook&#45;ceph&#45;&gt;monitoring/prometheus&#45;stack -->
<g id="edge20" class="edge">
<title>storage/rook&#45;ceph&#45;&gt;monitoring/prometheus&#45;stack</title>
<path fill="none" stroke="black" d="M695.3,-162C768.4,-162 870.67,-162 870.67,-162 870.67,-162 870.67,-119.68 870.67,-119.68"/>
<polygon fill="black" stroke="black" points="874.17,-119.68 870.67,-109.68 867.17,-119.68 874.17,-119.68"/>
</g>
<!-- storage/rook&#45;ceph&#45;&gt;storage/local&#45;path&#45;provisioner -->
<g id="edge19" class="edge">
<title>storage/rook&#45;ceph&#45;&gt;storage/local&#45;path&#45;provisioner</title>
<path fill="none" stroke="black" d="M637.62,-143.83C637.62,-143.83 637.62,-119.93 637.62,-119.93"/>
<polygon fill="black" stroke="black" points="641.13,-119.93 637.63,-109.93 634.13,-119.93 641.13,-119.93"/>
</g>
<!-- temp -->
<g id="node15" class="node">
<title>temp</title>
<polygon fill="none" stroke="black" points="226,-252 172,-252 172,-216 226,-216 226,-252"/>
<text text-anchor="middle" x="199" y="-229.32" font-family="Times,serif" font-size="14.00">temp</text>
</g>
<!-- temp&#45;&gt;network/cilium/cr -->
<g id="edge22" class="edge">
<title>temp&#45;&gt;network/cilium/cr</title>
<path fill="none" stroke="black" d="M199,-215.83C199,-215.83 199,-191.93 199,-191.93"/>
<polygon fill="black" stroke="black" points="202.5,-191.93 199,-181.93 195.5,-191.93 202.5,-191.93"/>
</g>
</g>
</svg>
